<svg width="19" height="21" viewBox="0 0 19 21" fill="none" xmlns="http://www.w3.org/2000/svg">
<path d="M15.7873 5.66949C15.0854 5.66376 14.4379 5.29029 14.0815 4.68578C13.4789 3.79083 12.4709 3.25408 11.392 3.25391H8.35385C7.23584 3.26311 6.19917 3.84019 5.60212 4.78535C5.24029 5.3405 4.62103 5.67354 3.95848 5.66954C3.10711 5.67145 2.29123 6.0107 1.68916 6.6126C1.08726 7.21467 0.748006 8.0306 0.746094 8.88192V16.0415C0.748178 16.8929 1.08726 17.7088 1.68916 18.3108C2.29123 18.9127 3.10716 19.2518 3.95848 19.2539H15.7874C16.6387 19.2518 17.4546 18.9127 18.0567 18.3108C18.6586 17.7088 18.9977 16.8928 18.9998 16.0415V8.88192C18.9979 8.03056 18.6586 7.21467 18.0567 6.6126C17.4546 6.01071 16.6387 5.6714 15.7873 5.66949ZM9.87288 16.0789C8.83603 16.0789 7.84152 15.6671 7.1083 14.9338C6.37509 14.2006 5.96304 13.2061 5.96304 12.1691C5.96304 11.1322 6.37507 10.1377 7.1083 9.40449C7.84152 8.67127 8.83603 8.2594 9.87288 8.2594C10.9097 8.2594 11.9043 8.67126 12.6375 9.40449C13.3707 10.1377 13.7827 11.1322 13.7827 12.1691C13.7829 13.2061 13.3712 14.2008 12.6378 14.9342C11.9046 15.6674 10.91 16.0793 9.87288 16.0789ZM15.5632 9.85318C15.3799 10.0364 15.1314 10.1395 14.8722 10.1395C14.6128 10.1395 14.3643 10.0364 14.181 9.85318C13.9977 9.66992 13.8949 9.42134 13.8949 9.16217C13.8949 8.903 13.9977 8.65442 14.181 8.47116C14.3643 8.28772 14.6128 8.18489 14.8722 8.18489C15.1314 8.18489 15.3799 8.28772 15.5632 8.47116C15.7428 8.65633 15.8434 8.90404 15.8434 9.16217C15.8434 9.42013 15.7428 9.66801 15.5632 9.85318Z" fill="#383680"/>
<path d="M15.5632 9.85318C15.3799 10.0364 15.1314 10.1395 14.8722 10.1395C14.6128 10.1395 14.3643 10.0364 14.181 9.85318C13.9977 9.66992 13.8949 9.42134 13.8949 9.16217C13.8949 8.903 13.9977 8.65442 14.181 8.47116C14.3643 8.28772 14.6128 8.18489 14.8722 8.18489C15.1314 8.18489 15.3799 8.28772 15.5632 8.47116C15.7428 8.65633 15.8434 8.90404 15.8434 9.16217C15.8434 9.42013 15.7428 9.66801 15.5632 9.85318Z" fill="#383680"/>
</svg>
