<svg width="21" height="21" viewBox="0 0 21 21" fill="none" xmlns="http://www.w3.org/2000/svg">
<path d="M5.21859 6.50391H0.746094V20.2539H5.21859V6.50391Z" fill="#383680"/>
<path d="M17.4011 6.66516C17.3536 6.65016 17.3086 6.63391 17.2586 6.62016C17.1986 6.60641 17.1386 6.59516 17.0773 6.58516C16.8398 6.53766 16.5798 6.50391 16.2748 6.50391C13.6673 6.50391 12.0136 8.40016 11.4686 9.13266V6.50391H6.99609V20.2539H11.4686V12.7539C11.4686 12.7539 14.8486 8.04641 16.2748 11.5039C16.2748 14.5902 16.2748 20.2539 16.2748 20.2539H20.7461V10.9752C20.7461 8.89766 19.3223 7.16641 17.4011 6.66516Z" fill="#383680"/>
<path d="M2.93359 4.62891C4.14172 4.62891 5.12109 3.64953 5.12109 2.44141C5.12109 1.23328 4.14172 0.253906 2.93359 0.253906C1.72547 0.253906 0.746094 1.23328 0.746094 2.44141C0.746094 3.64953 1.72547 4.62891 2.93359 4.62891Z" fill="#383680"/>
</svg>
