<svg width="22" height="23" viewBox="0 0 22 23" fill="none" xmlns="http://www.w3.org/2000/svg">
<rect y="0.498047" width="22" height="22" rx="5" fill="#383680"/>
<path d="M5.9375 5.49805H16.0625C17.3623 5.49805 18.4244 6.51539 18.4961 7.79723L18.5 7.93555V15.0605C18.5 16.3603 17.4827 17.4225 16.2008 17.4942L16.0625 17.498H5.9375C4.63773 17.498 3.57557 16.4807 3.50386 15.1989L3.5 15.0605V7.93555C3.5 6.63577 4.51734 5.57361 5.79918 5.50191L5.9375 5.49805H16.0625H5.9375ZM17.375 9.5278L11.262 12.7458C11.1214 12.8198 10.9574 12.8304 10.8101 12.7775L10.738 12.7458L4.625 9.52855V15.0605C4.625 15.7492 5.15533 16.3139 5.82985 16.3687L5.9375 16.373H16.0625C16.7511 16.373 17.3159 15.8427 17.3706 15.1682L17.375 15.0605V9.5278ZM16.0625 6.62305H5.9375C5.24887 6.62305 4.68411 7.15338 4.62935 7.8279L4.625 7.93555V8.2573L11 11.6124L17.375 8.25655V7.93555C17.375 7.24692 16.8447 6.68215 16.1701 6.6274L16.0625 6.62305Z" fill="white"/>
</svg>
