<svg width="22" height="23" viewBox="0 0 22 23" fill="none" xmlns="http://www.w3.org/2000/svg">
<rect y="0.200195" width="22" height="22" rx="5" fill="#00AFF0"/>
<path fill-rule="evenodd" clip-rule="evenodd" d="M14.457 18.7002C13.6411 18.7002 12.8655 18.4626 12.1975 18.0103C10.0333 18.3887 7.76098 17.7391 6.11097 16.0892C4.46176 14.4399 3.81139 12.1678 4.18985 10.0027C3.73758 9.33469 3.5 8.55913 3.5 7.74316C3.5 5.51385 5.31366 3.7002 7.54297 3.7002C8.35893 3.7002 9.1345 3.93777 9.80249 4.39005C14.5201 3.56538 18.6379 7.66294 17.8102 12.3977C18.2624 13.0657 18.5 13.8413 18.5 14.6572C18.5 16.8865 16.6863 18.7002 14.457 18.7002ZM12.6953 16.9243C13.203 17.3195 13.8122 17.5283 14.457 17.5283C16.0401 17.5283 17.3281 16.2404 17.3281 14.6572C17.3281 14.0124 17.1193 13.4032 16.7241 12.8955C16.6177 12.7588 16.5772 12.582 16.6137 12.4126C17.4921 8.32304 13.8488 4.71403 9.78761 5.58652C9.61835 5.62292 9.44143 5.58252 9.30467 5.47609C8.79701 5.08092 8.18784 4.87207 7.54297 4.87207C5.95991 4.87207 4.67188 6.15999 4.67188 7.74316C4.67188 8.38804 4.88073 8.99721 5.27589 9.50487C5.38232 9.64162 5.42284 9.81844 5.38633 9.98781C4.50983 14.0682 8.14172 17.6883 12.2124 16.8139C12.381 16.7776 12.558 16.8174 12.6953 16.9243ZM11.5397 10.7542C12.1241 10.9251 13.8907 11.4418 13.8907 12.9287C13.8907 14.1345 12.705 15.2432 11 15.2432C9.90413 15.2432 8.75755 14.7329 8.29646 13.7547C8.15856 13.462 8.28399 13.113 8.57662 12.9749C8.86936 12.8369 9.21851 12.9625 9.35653 13.2551C9.58301 13.7356 10.2588 14.0713 11 14.0713C11.9317 14.0713 12.7188 13.5481 12.7188 12.9287C12.7188 12.3278 11.6698 12.0112 10.7793 11.7424C10.7039 11.7196 10.6297 11.6972 10.5574 11.675C10.5304 11.6667 10.4978 11.6572 10.4603 11.6462C9.87592 11.4753 8.10935 10.9586 8.10935 9.47168C8.10935 8.26593 9.29508 7.15723 11 7.15723C12.0959 7.15723 13.2425 7.66752 13.7036 8.64565C13.8415 8.93839 13.716 9.28743 13.4234 9.42545C13.1307 9.56346 12.7815 9.43792 12.6435 9.14529C12.417 8.66476 11.7413 8.3291 11 8.3291C10.0684 8.3291 9.28123 8.85233 9.28123 9.47168C9.28123 10.0726 10.3302 10.3892 11.2207 10.658C11.2961 10.6808 11.3703 10.7032 11.4427 10.7254C11.4696 10.7337 11.5022 10.7432 11.5397 10.7542Z" fill="white"/>
</svg>
