<svg width="21" height="16" viewBox="0 0 21 16" fill="none" xmlns="http://www.w3.org/2000/svg">
<path d="M20.7461 2.02968C20.0023 2.33083 19.2098 2.53044 18.3836 2.62737C19.2336 2.15891 19.8823 1.42275 20.1873 0.535445C19.3948 0.971599 18.5198 1.27968 17.5873 1.4516C16.8348 0.711983 15.7623 0.253906 14.5923 0.253906C12.3223 0.253906 10.4948 1.95468 10.4948 4.03968C10.4948 4.33968 10.5223 4.62814 10.5898 4.90275C7.18109 4.74929 4.16484 3.24121 2.13859 0.943906C1.78484 1.51044 1.57734 2.15891 1.57734 2.85698C1.57734 4.16775 2.30859 5.32968 3.39859 6.00237C2.73984 5.99083 2.09359 5.81429 1.54609 5.53621C1.54609 5.54775 1.54609 5.56275 1.54609 5.57775C1.54609 7.41698 2.96734 8.94468 4.83109 9.2966C4.49734 9.38083 4.13359 9.42121 3.75609 9.42121C3.49359 9.42121 3.22859 9.40737 2.97984 9.3566C3.51109 10.8554 5.01859 11.9574 6.81109 11.9931C5.41609 13.0004 3.64484 13.6074 1.72734 13.6074C1.39109 13.6074 1.06859 13.5935 0.746094 13.5554C2.56234 14.6366 4.71484 15.2539 7.03609 15.2539C14.5811 15.2539 18.7061 9.48468 18.7061 4.48391C18.7061 4.3166 18.6998 4.15506 18.6911 3.99468C19.5048 3.4616 20.1886 2.79583 20.7461 2.02968Z" fill="#383680"/>
</svg>
