<svg width="21" height="18" viewBox="0 0 21 18" fill="none" xmlns="http://www.w3.org/2000/svg">
<path d="M19.8961 2.69936C19.3536 1.64663 18.7648 1.453 17.5661 1.37936C16.3686 1.29072 13.3573 1.25391 10.7486 1.25391C8.13484 1.25391 5.12234 1.29072 3.92609 1.378C2.72984 1.453 2.13984 1.64527 1.59234 2.69936C1.03359 3.75072 0.746094 5.56163 0.746094 8.74982C0.746094 8.75254 0.746094 8.75391 0.746094 8.75391C0.746094 8.75663 0.746094 8.758 0.746094 8.758V8.76072C0.746094 11.9353 1.03359 13.7598 1.59234 14.8003C2.13984 15.853 2.72859 16.0439 3.92484 16.1325C5.12234 16.2089 8.13484 16.2539 10.7486 16.2539C13.3573 16.2539 16.3686 16.2089 17.5673 16.1339C18.7661 16.0453 19.3548 15.8544 19.8973 14.8016C20.4611 13.7612 20.7461 11.9366 20.7461 8.76209C20.7461 8.76209 20.7461 8.758 20.7461 8.75527C20.7461 8.75527 20.7461 8.75254 20.7461 8.75118C20.7461 5.56163 20.4611 3.75072 19.8961 2.69936ZM8.24609 12.8448V4.663L14.4961 8.75391L8.24609 12.8448Z" fill="#383680"/>
</svg>
