<svg width="103" height="103" fill="none" xmlns="http://www.w3.org/2000/svg"><rect width="103" height="103" rx="51.5" fill="#383680"/><path d="M47.532 36.197h1.508a.732.732 0 1 0 0-1.465h-1.508a.732.732 0 1 0 0 1.465zM39.933 36.197h1.508a.732.732 0 1 0 0-1.465h-1.508a.732.732 0 1 0 0 1.465zM41.441 46.19h-1.508a.732.732 0 1 0 0 1.464h1.508a.732.732 0 1 0 0-1.465z" fill="#fff"/><path d="M60.135 37.053c-1.104 0-2.185.098-3.236.284v-6.063A2.277 2.277 0 0 0 54.624 29H26.666a2.277 2.277 0 0 0-2.274 2.274v8.382c0 .592.229 1.132.603 1.536a2.265 2.265 0 0 0-.603 1.54v8.382c0 1.251 1.02 2.269 2.274 2.269h15.119a18.598 18.598 0 0 0-.124 2.143C41.66 65.713 49.948 74 60.134 74c10.187 0 18.474-8.287 18.474-18.474 0-10.186-8.288-18.473-18.474-18.473h.001zm-34.278-5.779a.81.81 0 0 1 .809-.809h27.958a.81.81 0 0 1 .81.81v6.385a18.413 18.413 0 0 0-5.976 2.8l-22.792-.001a.807.807 0 0 1-.809-.803v-8.382zm.809 20.643a.807.807 0 0 1-.809-.802v-8.382a.81.81 0 0 1 .809-.809h20.982a18.473 18.473 0 0 0-5.633 9.994H26.666zm33.469 20.618c-9.379 0-17.008-7.63-17.008-17.008s7.63-17.008 17.008-17.008 17.008 7.63 17.008 17.008c0 9.379-7.63 17.008-17.008 17.008z" fill="#fff"/><path d="M72.332 54.1a.733.733 0 0 0-1.03.121l-1.586 2.012-2.102.207c-.204-1.704-.663-3.395-1.441-4.816l2.576-.999a.728.728 0 0 0 .434-.464l.835-2.671a.733.733 0 1 0-1.399-.437l-.73 2.334-2.545.987a6.776 6.776 0 0 0-1.49-1.388 4.103 4.103 0 0 0-1.113-2.277l.81-1.038a.732.732 0 1 0-1.156-.9l-.864 1.107a3.62 3.62 0 0 0-2.793 0l-.863-1.107a.732.732 0 1 0-1.155.9l.808 1.037a4.1 4.1 0 0 0-1.114 2.28 6.782 6.782 0 0 0-1.489 1.386l-2.546-.988-.73-2.333a.733.733 0 0 0-1.398.437l.835 2.67a.73.73 0 0 0 .434.465l2.576.998a11.26 11.26 0 0 0-.834 1.97.717.717 0 0 0-.058.184 15.485 15.485 0 0 0-.549 2.662l-2.101-.206-1.588-2.011a.733.733 0 0 0-1.15.907l1.78 2.257a.734.734 0 0 0 .504.276l2.442.24c-.008.224-.012.446-.012.668 0 1.09.16 2.098.458 3.005l-1.975.61c-.23.072-.411.251-.483.481l-.668 2.129a.732.732 0 1 0 1.399.438l.552-1.761 1.764-.545c1.264 2.273 3.594 3.637 6.557 3.637 2.964 0 5.293-1.365 6.557-3.638l1.765.545.553 1.761a.734.734 0 0 0 1.398-.438l-.667-2.128a.732.732 0 0 0-.483-.481l-1.976-.61a9.582 9.582 0 0 0 .458-3.005c0-.221-.004-.445-.012-.67l2.442-.24a.733.733 0 0 0 .504-.275l1.78-2.257a.732.732 0 0 0-.121-1.028zm-13.38-6.68a2.079 2.079 0 0 1 2.369.004c.281.188.518.435.7.723a7.146 7.146 0 0 0-1.886-.242 7.14 7.14 0 0 0-1.887.243c.183-.29.42-.538.704-.727zm1.183 1.95c2.59 0 4.225 1.62 5.15 3.8h-10.3c.925-2.18 2.56-3.8 5.15-3.8zm0 15.728c-3.73 0-6.14-2.562-6.14-6.528 0-1.299.152-2.664.49-3.934h4.917v5.325a.732.732 0 1 0 1.465 0v-5.325h4.917c.339 1.27.49 2.635.49 3.934 0 3.966-2.41 6.528-6.139 6.528z" fill="#fff"/></svg>