<svg width="104" height="103" fill="none" xmlns="http://www.w3.org/2000/svg"><rect x=".333" width="103" height="103" rx="51.5" fill="#383680"/><path d="M74.938 40.221 66.6 35.673a.761.761 0 0 0-.727 0l-4.943 2.696v-5.063a.758.758 0 0 0-.395-.665l-8.339-4.549a.762.762 0 0 0-.726 0l-8.339 4.549a.758.758 0 0 0-.395.665v5.063l-4.943-2.696a.761.761 0 0 0-.726 0l-8.34 4.548a.758.758 0 0 0-.394.666v6.064c0 .278.152.533.395.666l8.339 4.549a.761.761 0 0 0 .726 0l2.05-1.119-1.433 1.433a.757.757 0 0 0 0 1.072l5.306 5.306a.757.757 0 0 0 1.072 0l1.739-1.738v7.267c-.238 0-.476-.007-.71-.022l-.095 1.513c.267.016.535.025.805.025v4.688a2.27 2.27 0 0 0-1.517 2.135v1.516c0 .42.34.758.759.758h4.548a.758.758 0 0 0 .758-.758v-9.855h1.516v9.855c0 .42.34.758.758.758h4.549a.758.758 0 0 0 .758-.758v-1.516c0-.987-.636-1.821-1.516-2.135v-4.688c.27 0 .538-.009.804-.025l-.094-1.513c-.235.015-.473.022-.71.022V57.12l1.738 1.738a.757.757 0 0 0 1.071 0l5.307-5.306a.757.757 0 0 0 0-1.072l-1.433-1.433 2.05 1.118a.76.76 0 0 0 .726 0l8.34-4.548a.758.758 0 0 0 .394-.666v-6.064a.758.758 0 0 0-.395-.666zm-8.701-3.02 6.756 3.686-6.756 3.685-6.756-3.685 6.756-3.685zm-28.049 8.684 6.823-3.721v4.338l-6.823 3.721v-4.338zm6.065-6.965v-4.337l6.822 3.721v4.338l-6.822-3.722zm6.064 7.273c0-.836.68-1.516 1.516-1.516.837 0 1.516.68 1.516 1.516v1.516c0 .836-.68 1.516-1.516 1.516s-1.516-.68-1.516-1.516v-1.516zm2.274-7.888 6.823-3.722v4.338l-6.823 3.722v-4.338zm6.065 3.859 6.822 3.721v4.337l-6.822-3.721v-4.337zM51.833 29.62l6.756 3.686-6.756 3.685-6.756-3.685 6.756-3.685zM37.43 37.202l6.756 3.685-6.756 3.685-6.756-3.685 6.756-3.685zm-7.58 4.962 6.822 3.722v4.337L29.849 46.5v-4.337zm19.71 31.32h-3.033v-.758c0-.418.34-.758.758-.758h2.274v1.516zm.757-10.613a.758.758 0 0 0-.758.758v6.823h-1.516v-9.097h7.58v9.097h-1.515v-6.823c0-.419-.34-.758-.759-.758h-3.032zm6.823 10.613h-3.032v-1.516h2.274c.417 0 .758.34.758.758v.758zm2.274-16.233-2.496-2.496a.757.757 0 0 0-1.294.536v4.548h-7.581V55.29a.759.759 0 0 0-1.294-.536l-2.496 2.496-4.235-4.234 1.202-1.203 2.497 2.496a.757.757 0 0 0 1.071 0l2.053-2.052h9.984l2.053 2.053a.757.757 0 0 0 1.072 0l2.496-2.497 1.202 1.203-4.234 4.234zm2.496-7.045-2.496 2.497-1.738-1.738a.755.755 0 0 0-.536-.223H46.527a.756.756 0 0 0-.536.222l-1.738 1.739-2.496-2.496c-.05-.05-.11-.079-.167-.111l4.542-2.478a.758.758 0 0 0 .395-.666v-5.063l3.482 1.899a3.017 3.017 0 0 0-1.208 2.406v1.516a3.035 3.035 0 0 0 3.032 3.032 3.035 3.035 0 0 0 3.033-3.032v-1.516c0-.985-.478-1.852-1.208-2.406l3.482-1.899v5.063c0 .278.152.533.395.666l4.542 2.478c-.057.032-.117.061-.167.11zm5.085.018v-4.338l6.822-3.72v4.337l-6.822 3.72z" fill="#fff"/><path d="M37.174 61.88c.368.387.764.756 1.176 1.095l.964-1.171c-.364-.3-.714-.626-1.041-.969l-1.1 1.044zM42.565 65.281c.507.165 1.032.298 1.56.398l.282-1.49a11.245 11.245 0 0 1-1.376-.35l-.466 1.442zM36.594 58.555l-1.325.738c.26.467.554.922.872 1.353l1.22-.899c-.28-.38-.538-.781-.767-1.192zM39.655 63.921c.456.287.931.547 1.412.772l.644-1.373a11.73 11.73 0 0 1-1.248-.682l-.808 1.283zM35.157 53.12l-1.516.014c.004.535.043 1.075.113 1.603l1.502-.2a11.579 11.579 0 0 1-.1-1.417zM35.532 55.928l-1.467.388c.138.518.31 1.032.508 1.527l1.406-.568a11.67 11.67 0 0 1-.447-1.347zM68.41 54.535l1.503.2c.07-.528.108-1.068.113-1.603l-1.516-.014c-.003.473-.038.95-.1 1.417zM59.259 64.19l.282 1.49a12.92 12.92 0 0 0 1.56-.398l-.466-1.441c-.447.144-.91.261-1.376.35zM66.305 59.748l1.22.899c.318-.432.61-.887.871-1.353l-1.324-.74c-.228.411-.487.812-.767 1.194zM67.686 57.275l1.406.568c.2-.495.37-1.009.508-1.527l-1.466-.388c-.12.457-.272.91-.448 1.347zM61.957 63.32l.644 1.374c.48-.225.955-.486 1.411-.772l-.807-1.284c-.404.254-.824.483-1.248.683zM64.354 61.805l.963 1.172c.413-.339.808-.709 1.176-1.096l-1.099-1.044c-.326.343-.677.668-1.04.968z" fill="#fff"/></svg>