<svg width="103" height="103" fill="none" xmlns="http://www.w3.org/2000/svg"><rect width="103" height="103" rx="51.5" fill="#383680"/><path d="M30.816 70.948c0 .181.147.329.329.329h8.033a.323.323 0 0 0 .18-.062.319.319 0 0 0 .093-.095c.004-.006.011-.009.015-.015l5.301-9.788a10.677 10.677 0 0 0 5.512 1.53 10.807 10.807 0 0 0 6.385-2.094l5.096 5.096-.586.585a.329.329 0 0 0 0 .465l6.29 6.291c.516.52 1.22.812 1.953.81h.001a2.769 2.769 0 0 0 2.764-2.766c.001-.733-.29-1.437-.808-1.955l-6.29-6.289a.328.328 0 0 0-.464 0l-.588.587-5.093-5.095a10.662 10.662 0 0 0-2.078-14.861l5.045-4.334h7.91a.327.327 0 0 0 .329-.328 4.343 4.343 0 0 0-2.844-4.073 3.135 3.135 0 1 0-3.002 0 4.341 4.341 0 0 0-2.836 3.915l-5.146 4.422a10.702 10.702 0 0 0-12.102.05L39.5 38.811a4.345 4.345 0 0 0-2.837-3.925 3.136 3.136 0 0 0-1.5-5.886 3.134 3.134 0 0 0-1.501 5.886 4.35 4.35 0 0 0-2.845 4.072.33.33 0 0 0 .329.329h7.902l4.632 4.383a10.693 10.693 0 0 0 .537 17.286l-4.843 8.942a4.354 4.354 0 0 0-2.71-3.022 3.136 3.136 0 0 0-1.502-5.886 3.134 3.134 0 0 0-1.5 5.886 4.35 4.35 0 0 0-2.845 4.072zm26.406-10.565a13.274 13.274 0 0 0 1.345-1.345l5.002 5.003-1.344 1.344-5.003-5.002zm7.63 3.303 6.059 6.057a2.111 2.111 0 0 1-1.492 3.6h-.001a2.093 2.093 0 0 1-1.49-.617l-6.057-6.059.582-.582.005-.003 1.81-1.808.004-.007.58-.581zm-1.53-31.55a2.479 2.479 0 1 1 4.958-.002 2.479 2.479 0 0 1-4.958.001zm2.479 3.134a3.69 3.69 0 0 1 3.673 3.36h-7.348a3.692 3.692 0 0 1 3.674-3.36zm-33.117-3.135a2.477 2.477 0 0 1 4.23-1.753 2.478 2.478 0 1 1-4.23 1.753zm-1.197 6.495a3.69 3.69 0 0 1 7.348 0h-7.348zm11.685 6.355a10.086 10.086 0 1 1 1.65 15.6 10.098 10.098 0 0 1-1.65-15.6zm-10.488 19.14a2.477 2.477 0 1 1 4.954 0 2.477 2.477 0 0 1-4.954 0zm2.478 3.135a3.69 3.69 0 0 1 3.674 3.36h-7.348a3.694 3.694 0 0 1 3.674-3.36z" fill="#fff" stroke="#fff" stroke-width=".7"/><path d="M50.301 60.741a8.621 8.621 0 1 0-4.723-15.831 8.617 8.617 0 0 0-.236 14.253 8.58 8.58 0 0 0 4.96 1.578zm.001-16.583a7.96 7.96 0 1 1-.003 15.92 7.96 7.96 0 0 1 .003-15.92z" fill="#fff" stroke="#fff" stroke-width=".7"/><path d="M45.688 56.636c0 .181.146.328.328.328h8.57a.328.328 0 0 0 .328-.328 4.619 4.619 0 0 0-3.068-4.34 3.329 3.329 0 1 0-3.09-.007l-.04.013a4.629 4.629 0 0 0-3.029 4.334zm8.556-.329h-7.886a3.975 3.975 0 0 1 2.584-3.388 3.96 3.96 0 0 1 5.302 3.389zm-5.041-4.52a2.665 2.665 0 1 1 3.118-4.164 2.64 2.64 0 0 1 .646 1.734 2.672 2.672 0 0 1-2.667 2.667c-.379 0-.753-.08-1.097-.237z" fill="#fff" stroke="#fff" stroke-width=".7"/></svg>