<svg width="104" height="103" fill="none" xmlns="http://www.w3.org/2000/svg"><rect x=".667" width="103" height="103" rx="51.5" fill="#383680"/><path d="M78.458 65.563h-1.313V31.25c0-1.219-1.03-2.25-2.25-2.25H29.709c-1.219 0-2.25 1.031-2.25 2.25v34.313h-1.5c-.563 0-.938.374-.938.937v3.094c0 2.344 2.063 4.406 4.407 4.406h45.469a4.401 4.401 0 0 0 4.406-4.406V66.5c.094-.563-.375-.938-.844-.938zM29.238 31.25c0-.281.188-.375.47-.375h45.187c.188 0 .375.188.375.375v34.313h-1.875V33.686c0-.562-.375-.937-.938-.937H32.145c-.563 0-.938.375-.938.938v31.874h-1.875V31.25h-.093zm27.656 34.313c-.562 0-.937.374-.937.937v.938c0 .562-.375.937-.938.937h-5.625c-.562 0-.937-.375-.937-.938V66.5c0-.563-.375-.938-.938-.938H32.99V34.626h38.437v30.938H56.894zm20.625 4.03a2.52 2.52 0 0 1-2.53 2.532h-45.47c-1.313 0-2.531-1.219-2.531-2.531v-2.156h19.687c0 1.593 1.219 2.812 2.813 2.812h5.625c1.593 0 2.812-1.219 2.812-2.813H77.52v2.157z" fill="#fff" stroke="#383680" stroke-width=".5"/><path d="m61.958 49.344-1.594-.188c-.187-.656-.468-1.218-.843-1.875l.937-1.312c.281-.375.281-.938-.094-1.219l-1.593-1.594a.906.906 0 0 0-1.313 0l-1.219 1.125c-.562-.281-1.125-.562-1.781-.75l-.188-1.593c-.093-.47-.468-.844-.937-.844h-2.344c-.468 0-.843.375-.937.843l-.188 1.594c-.656.188-1.218.469-1.781.75l-1.313-1.125c-.375-.281-.937-.281-1.218.094l-1.594 1.594c-.375.375-.375.843-.094 1.218l1.032 1.22c-.282.562-.563 1.124-.75 1.78l-1.594.188c-.469.094-.844.469-.844.938v2.343c0 .469.375.844.844.938l1.593.187c.188.657.47 1.219.75 1.782l-1.03 1.218c-.282.375-.282.938.093 1.219l1.688 1.688c.374.374.843.374 1.218.093l1.313-1.031c.562.281 1.125.563 1.781.75l.188 1.594c.093.468.468.843.937.843h2.344c.468 0 .843-.374.937-.843l.188-1.594c.656-.188 1.218-.469 1.781-.75l1.219 1.031c.375.282.937.282 1.218-.093l1.688-1.688c.375-.375.375-.844.094-1.219l-1.032-1.218c.282-.563.563-1.126.75-1.782l1.594-.187c.469-.094.844-.469.844-.938v-2.343c.094-.376-.281-.844-.75-.844zm-2.438 2.625c-.375 0-.75.281-.843.75-.282 1.031-.563 1.781-1.032 2.437-.28.375-.187.844 0 1.125l.938 1.125-.469.469-1.125-.938c-.281-.28-.75-.28-1.125 0-.75.563-1.5.844-2.343 1.032-.376.093-.75.375-.75.843l-.188 1.407h-.656l-.188-1.407c0-.374-.281-.75-.75-.843-.937-.282-1.781-.563-2.437-1.032-.375-.28-.844-.187-1.125 0l-1.125.938-.469-.469.938-1.125c.28-.281.28-.75 0-1.125a6.279 6.279 0 0 1-.938-1.968c0-.094-.094-.282-.094-.376-.093-.374-.375-.656-.843-.75l-1.407-.187v-.656l1.407-.188c.374 0 .75-.281.843-.75.188-.75.469-1.406.75-1.968.094-.094.188-.282.282-.47.187-.374.187-.75 0-1.124l-.938-1.125.375-.375 1.125.937c.281.282.75.282 1.125 0 .75-.562 1.5-.843 2.344-1.031.375-.094.75-.375.75-.844l.187-1.406h.657l.187 1.406c0 .375.281.75.75.844 1.031.281 1.781.563 2.438 1.031.374.282.843.188 1.124-.093l1.125-.938.47.469-.938 1.218c-.282.282-.282.75 0 1.126.562.75.843 1.5 1.031 2.343.094.375.375.75.844.75l1.406.188v.656l-1.313.094z" fill="#fff" stroke="#383680" stroke-width=".5"/><path d="m48.833 48.124-.094.094c-1.687 1.875-1.593 4.687.188 6.375.937.937 2.062 1.312 3.281 1.312 1.219 0 2.344-.468 3.281-1.312.282-.282.47-.563.657-.844 1.125-1.781.843-4.125-.657-5.625a4.814 4.814 0 0 0-6.656 0zm1.406 5.25c-1.03-1.031-1.125-2.719-.093-3.844l.093-.093c1.125-1.125 2.813-1.125 3.938 0 .937.937 1.031 2.25.375 3.375-.094.187-.281.375-.375.562-1.125 1.031-2.906 1.031-3.938 0zM40.02 49.155h-.937a1.88 1.88 0 0 1-1.875-1.875c0-.562-.375-.937-.938-.937-.562 0-.937.375-.937.937a3.761 3.761 0 0 0 3.75 3.75h.938c.562 0 .937-.375.937-.937 0-.563-.375-.938-.938-.938zM40.02 51.968h-.937a3.761 3.761 0 0 0-3.75 3.75c0 .562.375.937.938.937.562 0 .937-.375.937-.937a1.88 1.88 0 0 1 1.875-1.875h.938c.562 0 .937-.375.937-.938 0-.562-.375-.937-.938-.937zM64.395 51.03h.938a3.761 3.761 0 0 0 3.75-3.75c0-.562-.375-.937-.938-.937-.562 0-.937.375-.937.937a1.88 1.88 0 0 1-1.875 1.875h-.938c-.562 0-.937.375-.937.938 0 .562.375.937.938.937zM65.333 51.968h-.938c-.562 0-.937.375-.937.937 0 .563.375.938.938.938h.937a1.88 1.88 0 0 1 1.875 1.875c0 .562.375.937.938.937.562 0 .937-.375.937-.937a3.761 3.761 0 0 0-3.75-3.75z" fill="#fff" stroke="#383680" stroke-width=".5"/></svg>