<svg width="210" height="211" viewBox="0 0 210 211" fill="none" xmlns="http://www.w3.org/2000/svg">
<path d="M207.299 9.86413C198.375 -4.00191 170.993 -1.22346 139.37 10.7042C128.092 3.31719 114.792 -0.235302 100.988 0.626816C89.9956 1.30765 79.7462 4.97362 70.9428 10.7244C36.2815 -2.35452 10.7773 -2.67828 2.70433 9.86417C0.0394955 14.0042 -0.624897 19.2186 0.731345 25.3607C3.74576 38.9977 16.7808 56.6636 36.1925 74.6045C32.5558 77.9685 29.1058 81.3454 25.8921 84.7222C23.9173 83.7705 21.7099 83.2214 19.3709 83.2214C11.1002 83.2214 4.37004 89.9019 4.37004 98.1141C4.37004 101.709 5.65853 105.009 7.79991 107.586C7.79076 107.6 7.77612 107.606 7.76697 107.62C-0.34303 120.937 -2.09256 131.913 2.70437 139.362C6.67784 145.538 14.7473 148.61 26.0087 148.61C38.2972 148.609 54.4103 144.913 73.1159 137.644C73.2971 139.166 73.4143 140.706 73.4802 142.26H72.6474C66.8586 142.26 62.1493 146.969 62.1493 152.758C62.1493 157.512 65.3467 161.494 69.69 162.78V185.232C69.69 190.483 73.9618 194.753 79.2145 194.753H79.738V198.263C79.738 205.009 85.2288 210.5 91.9786 210.5H118.032C124.778 210.5 130.269 205.009 130.269 198.263V194.753H130.794C136.045 194.753 140.315 190.481 140.315 185.232V162.782C144.66 161.495 147.859 157.515 147.859 152.76C147.859 146.971 143.15 142.261 137.361 142.261H136.53C136.596 140.719 136.713 139.188 136.896 137.673C155.146 144.747 171.446 148.524 183.985 148.523C195.12 148.523 203.31 145.569 207.302 139.362C211.947 132.151 210.432 121.616 202.968 108.867C205.825 106.152 207.615 102.34 207.615 98.114C207.615 89.9018 200.888 83.2214 192.614 83.2214C189.743 83.2214 187.069 84.0395 184.787 85.4341C181.404 81.8487 177.736 78.2322 173.818 74.6118C203.349 47.3374 215.884 23.1986 207.3 9.8639L207.299 9.86413ZM101.31 5.86503C112.695 5.16404 123.656 7.70443 133.246 13.111C116.54 19.9105 98.9363 29.0452 82.4235 39.4923C69.7143 47.5306 57.9239 56.0979 47.3452 64.8685C47.3159 63.6459 47.2591 62.4288 47.3067 61.1953C48.4341 31.9774 72.1559 7.67369 101.311 5.86512L101.31 5.86503ZM47.8357 71.2735C58.9378 61.824 71.5613 52.5759 85.231 43.928C104.326 31.8485 122.449 22.7686 138.551 16.5056C140.627 17.9973 142.631 19.6225 144.529 21.407C156.27 32.4398 162.734 47.3835 162.734 63.4878C162.734 78.1316 157.243 92.0946 147.272 102.807C140.103 110.51 135.22 120.035 132.842 130.429C118.21 124.31 102.096 115.979 85.2291 105.305C72.2271 97.078 60.1293 88.209 49.4751 79.257C48.7376 76.6489 48.1958 73.984 47.8334 71.2735H47.8357ZM5.8534 24.2319C4.81014 19.5062 5.23296 15.6299 7.11444 12.7067C13.4215 2.90946 35.778 3.63945 65.8087 14.4509C51.9703 25.5896 42.7822 42.3568 42.063 60.9996C41.9568 63.745 42.0447 66.4666 42.2826 69.1551C41.556 69.7866 40.8477 70.418 40.1358 71.0512C21.3777 53.7756 8.6338 36.8275 5.8516 24.2317L5.8534 24.2319ZM19.368 88.4737C24.7469 88.4737 29.1193 92.8022 29.1193 98.1191C29.1193 103.441 24.7451 107.768 19.368 107.768C13.9892 107.768 9.61673 103.44 9.61673 98.1191C9.61673 92.8021 13.9892 88.4737 19.368 88.4737ZM7.11471 136.527C2.64524 129.585 7.1257 118.944 11.8681 110.999C14.0772 112.273 16.636 113.014 19.3685 113.014C27.6392 113.014 34.3693 106.332 34.3693 98.1162C34.3693 94.1263 32.7734 90.508 30.1909 87.8322C33.2932 84.5982 36.593 81.364 40.0926 78.139C41.6501 79.5208 43.2333 80.9044 44.8624 82.2863C47.6516 91.2378 52.4415 99.5127 59.0414 106.552C65.6853 113.64 70.1636 122.553 72.243 132.364C39.3481 145.32 13.8439 146.982 7.11565 136.527L7.11471 136.527ZM125.019 198.267C125.019 202.122 121.882 205.257 118.029 205.257H91.9757C88.1193 205.257 84.9822 202.12 84.9822 198.267V194.757H125.019V198.267ZM130.791 189.508H79.2093C76.852 189.508 74.932 187.592 74.932 185.234V163.26H135.065V185.234C135.065 187.592 133.148 189.508 130.791 189.508ZM142.609 152.762C142.609 155.657 140.254 158.013 137.358 158.013H72.6432C69.7477 158.013 67.3922 155.657 67.3922 152.762C67.3922 149.866 69.7477 147.511 72.6432 147.511H137.358C140.254 147.511 142.609 149.866 142.609 152.762ZM131.28 142.264H78.7234C78.1359 127.228 72.5996 113.348 62.868 102.965C58.9531 98.7881 55.7447 94.1318 53.2647 89.1484C62.2148 96.2056 72.0008 103.148 82.4207 109.74C99.4766 120.531 116.304 129.256 131.871 135.684C131.565 137.851 131.367 140.044 131.279 142.264H131.28ZM202.362 98.1182C202.362 103.44 197.988 107.767 192.611 107.767C187.232 107.767 182.86 103.439 182.86 98.1182C182.86 92.8012 187.234 88.4728 192.611 88.4728C197.989 88.4728 202.362 92.8013 202.362 98.1182ZM180.842 88.9123C178.825 91.449 177.61 94.6425 177.61 98.1182C177.61 106.332 184.338 113.016 192.611 113.016C194.736 113.016 196.756 112.57 198.59 111.774C203.115 119.561 207.226 129.791 202.886 136.528C196.401 146.601 171.448 145.664 137.763 132.426C139.861 122.601 144.392 113.611 151.117 106.387C159.248 97.6463 164.646 86.9209 166.853 75.3868C171.927 79.9093 176.616 84.439 180.842 88.9122L180.842 88.9123ZM169.91 71.0875C169.182 70.4414 168.461 69.7935 167.718 69.1475C167.884 67.2751 167.983 65.39 167.983 63.4903C167.983 46.18 160.744 29.4479 148.125 17.5858C146.908 16.4419 145.645 15.3712 144.36 14.3371C174.683 3.5002 196.837 3.30247 202.885 12.7082C209.796 23.4462 196.849 46.2877 169.908 71.0885L169.91 71.0875Z" fill="#383680"/>
<path d="M127.638 79.0595C135.908 79.0595 142.638 72.3771 142.638 64.165C142.638 55.9529 135.911 49.2705 127.638 49.2705C119.367 49.2705 112.637 55.9529 112.637 64.165C112.639 72.3771 119.366 79.0595 127.638 79.0595ZM127.638 54.5177C133.016 54.5177 137.389 58.8462 137.389 64.165C137.389 69.4839 133.015 73.8123 127.638 73.8123C122.259 73.8123 117.886 69.4837 117.886 64.165C117.886 58.8461 122.261 54.5177 127.638 54.5177Z" fill="#FF8F3E"/>
<path d="M192.732 179.857C192.732 171.645 186.004 164.963 177.731 164.963C169.461 164.963 162.73 171.645 162.73 179.857C162.73 188.07 169.458 194.752 177.731 194.752C186.004 194.754 192.732 188.07 192.732 179.857ZM167.98 179.857C167.98 174.538 172.354 170.21 177.731 170.21C183.11 170.21 187.484 174.539 187.484 179.857C187.484 185.176 183.11 189.505 177.733 189.505C172.354 189.505 167.98 185.178 167.98 179.857Z" fill="#FF8F3E"/>
<path d="M46.739 177.716C46.739 169.504 40.0112 162.821 31.7381 162.821C23.4674 162.821 16.7373 169.504 16.7373 177.716C16.7373 185.928 23.4651 192.61 31.7381 192.61C40.0089 192.61 46.739 185.928 46.739 177.716ZM21.9868 177.716C21.9868 172.397 26.3611 168.068 31.7381 168.068C37.117 168.068 41.4894 172.397 41.4894 177.716C41.4894 183.035 37.1152 187.363 31.7381 187.363C26.3593 187.363 21.9868 183.035 21.9868 177.716Z" fill="#FF8F3E"/>
</svg>
