<svg width="186" height="214" viewBox="0 0 186 214" fill="none" xmlns="http://www.w3.org/2000/svg">
<path d="M163.493 162.776V163.764C163.493 165.001 162.998 166.239 162.009 167.227C161.019 168.217 159.782 168.713 158.545 168.713C157.308 168.713 156.071 168.217 155.082 167.229C154.093 166.24 153.598 165.003 153.598 163.766V162.777C153.598 162.531 153.845 162.035 153.845 161.789C154.092 161.542 154.092 161.294 154.34 161.047C154.587 160.8 154.835 160.552 154.835 160.305C156.072 159.068 157.803 158.573 159.287 159.068C159.533 159.068 159.782 159.315 160.275 159.315C160.522 159.561 160.771 159.561 161.017 159.81C161.264 160.056 161.513 160.305 161.759 160.305C162.006 160.552 162.254 160.8 162.254 161.047C162.501 161.294 162.501 161.542 162.75 161.789C162.998 162.034 163.245 162.529 163.493 162.776ZM163.493 187.511V188.499C163.493 189.736 162.998 190.973 162.009 191.962C161.019 192.952 159.782 193.448 158.545 193.448C157.308 193.448 156.071 192.952 155.082 191.964C154.587 191.469 154.34 190.975 154.093 190.48C153.847 189.985 153.847 189.243 153.847 188.501V187.512C153.847 187.266 154.093 186.77 154.093 186.524C154.34 186.277 154.34 186.028 154.589 185.782C154.835 185.535 155.084 185.287 155.084 185.04C155.331 184.793 155.579 184.545 155.826 184.545C156.072 184.298 156.321 184.298 156.568 184.049C156.814 184.049 157.063 183.803 157.556 183.803C159.289 183.556 160.772 184.049 162.008 185.04C162.254 185.287 162.503 185.535 162.503 185.782C162.75 186.029 162.75 186.277 162.998 186.524C163.245 186.769 163.245 187.264 163.493 187.511ZM175.861 175.143V176.132C175.861 177.369 175.366 178.606 174.377 179.595C173.387 180.585 172.149 181.08 170.912 181.08C169.675 181.08 168.438 180.585 167.45 179.596C166.461 178.608 165.966 177.371 165.966 176.134V175.145C165.966 174.898 166.212 174.403 166.212 174.156C166.459 173.91 166.459 173.661 166.708 173.414C166.954 173.168 167.203 172.919 167.203 172.672C168.935 170.693 172.398 170.693 174.129 172.672C174.375 172.919 174.624 173.168 174.624 173.414C174.871 173.661 174.871 173.91 175.119 174.156C175.366 174.401 175.612 174.896 175.861 175.143ZM151.126 175.143V176.132C151.126 177.369 150.631 178.606 149.642 179.595C149.395 179.841 149.147 180.09 148.9 180.09C148.653 180.337 148.405 180.337 148.158 180.585C147.91 180.833 147.415 180.833 147.168 181.08H146.179C145.437 181.08 144.942 181.08 144.2 180.585C143.705 180.338 142.963 180.09 142.716 179.596C141.728 178.608 141.232 177.371 141.232 176.134V175.145C141.232 174.898 141.479 174.403 141.479 174.156C141.726 173.91 141.726 173.661 141.974 173.414C142.221 173.168 142.47 172.919 142.47 172.672C142.716 172.426 142.965 172.177 143.211 172.177C143.458 171.931 143.707 171.931 143.953 171.682C144.2 171.682 144.449 171.435 144.942 171.435H146.921C147.168 171.435 147.416 171.682 147.91 171.682C148.156 171.929 148.405 171.929 148.652 172.177C148.898 172.424 149.147 172.672 149.394 172.672C149.64 172.919 149.889 173.168 149.889 173.414C150.135 173.661 150.135 173.91 150.384 174.156C150.631 174.401 150.877 174.896 151.126 175.143ZM21.0198 26.7333C22.0085 27.722 22.5037 28.9591 22.5037 30.1961C22.5037 31.4332 22.0085 32.6704 21.0198 33.659C20.0312 34.6493 18.7941 35.1445 17.557 35.1445C16.32 35.1445 15.0828 34.6493 14.0942 33.6607C13.1056 32.672 12.6104 31.4349 12.6104 30.1979V29.2092C12.6104 28.9625 12.8571 28.4673 12.8571 28.2206C12.8571 27.9738 13.1039 27.7254 13.3523 27.4787C13.599 27.2319 13.599 26.9835 13.8475 26.7367C14.0942 26.49 14.3427 26.2416 14.5894 26.2416C14.8361 25.9948 15.0846 25.9948 15.3313 25.7464C15.5781 25.4996 15.8265 25.4996 16.32 25.4996C18.299 25.0027 19.7826 25.498 21.0198 26.7333ZM21.0198 51.4683C22.0085 52.457 22.5037 53.6941 22.5037 54.9311C22.5037 56.1682 22.0085 57.4053 21.0198 58.3939C20.0312 59.3843 18.7941 59.8795 17.557 59.8795C16.32 59.8795 15.0828 59.3843 14.0942 58.3956C13.8475 58.1489 13.5991 57.9005 13.5991 57.6537C13.5991 57.407 13.3523 57.1585 13.1039 56.9118C12.8571 56.6651 12.8571 56.4166 12.8571 55.9232V54.9345C12.8571 53.6974 13.3523 52.4603 14.341 51.4717C14.5877 51.225 14.8362 50.9765 15.0829 50.9765C15.3296 50.7298 15.5781 50.7298 16.0715 50.4813C16.3183 50.2346 16.5667 50.2346 17.0602 50.2346C18.299 49.7377 19.7828 50.2329 21.0198 51.4683ZM29.9244 47.512C28.6873 47.512 27.4502 47.0169 26.4616 46.0282C25.473 45.0396 24.9778 43.8025 24.9778 42.5654C24.9778 41.3283 25.473 40.0912 26.4616 39.1026C28.1939 37.1236 31.6569 37.1236 33.3874 39.1026C34.3761 40.0912 34.8713 41.3283 34.8713 42.5654C34.8713 43.8025 34.3761 45.0396 33.3874 46.0282C32.3988 47.0169 31.1615 47.512 29.9244 47.512ZM10.136 41.5752V42.5639C10.136 43.801 9.64084 45.0381 8.65219 46.0267C8.40546 46.2734 8.157 46.5218 7.91027 46.5218C7.66354 46.7686 7.41509 46.7686 7.16836 47.017C6.92163 47.2638 6.67317 47.2638 6.17971 47.2638H5.19106H4.20241C3.95568 47.2638 3.70723 47.017 3.21377 47.017C2.96704 47.017 2.71858 46.7703 2.47185 46.5218C2.22512 46.2751 1.97666 46.2751 1.72993 46.0267C0.741281 45.038 0.246094 43.8009 0.246094 42.5639V41.5752C0.246094 41.3285 0.492822 41.08 0.492822 40.5866C0.492822 40.3398 0.739553 40.0914 0.988012 39.8446C1.23474 39.5979 1.23474 39.3495 1.48319 39.1027C1.72992 38.856 1.97838 38.6075 2.22511 38.6075C2.47184 38.3608 2.7203 38.3608 2.96703 38.1123C3.21376 37.8656 3.46221 37.8656 3.95568 37.8656C4.69759 37.6189 5.19278 37.6189 5.9347 37.8656C6.18142 37.8656 6.42988 38.1123 6.92334 38.1123C7.17007 38.1123 7.41853 38.3591 7.66526 38.6075C7.91199 38.8543 8.16045 38.8543 8.40718 39.1027C8.6539 39.3495 8.90236 39.5979 8.90236 39.8446C9.14909 40.0914 9.14909 40.3398 9.39755 40.5866C9.88929 41.08 9.88929 41.3285 10.136 41.5752ZM164.977 33.6591C163.988 32.6705 163.493 31.4334 163.493 30.1963C163.493 28.9592 163.988 27.7221 164.977 26.7335C166.214 25.4964 167.945 25.0012 169.428 25.4964C169.675 25.4964 169.924 25.7431 170.417 25.7431C170.664 25.7431 170.912 25.9899 171.159 26.2383C171.406 26.485 171.654 26.4851 171.901 26.7335C172.89 27.7222 173.385 28.9593 173.385 30.1963C173.385 31.4334 172.89 32.6705 171.901 33.6591C171.654 33.9059 171.406 34.1543 171.159 34.1543C170.912 34.401 170.664 34.401 170.417 34.6495C170.17 34.8962 169.922 34.8962 169.428 34.8962H168.44H167.451C167.204 34.8962 166.709 34.6495 166.462 34.6495C166.216 34.6495 165.967 34.4028 165.721 34.1543C165.47 34.1543 165.224 33.9076 164.977 33.6591ZM164.977 58.3941C163.988 57.4055 163.493 56.1684 163.493 54.9313C163.493 53.6942 163.988 52.4571 164.977 51.4685C165.224 51.2218 165.472 50.9733 165.719 50.9733C165.966 50.7266 166.214 50.7266 166.461 50.4781C166.708 50.2314 166.956 50.2314 167.449 50.2314C167.945 49.9847 168.687 49.9847 169.428 50.2314C169.675 50.2314 169.924 50.4781 170.417 50.4781C170.664 50.4781 170.912 50.7248 171.159 50.9733C171.406 51.22 171.654 51.22 171.901 51.4685C172.148 51.7152 172.396 51.9637 172.396 52.2104C172.643 52.4571 172.643 52.7056 172.891 53.1991C172.891 53.4458 173.138 53.6942 173.138 54.1877V55.1763V56.165C173.138 56.4117 172.891 56.6602 172.891 57.1536C172.891 57.4004 172.645 57.6488 172.396 57.8956C172.149 58.1423 171.901 58.3907 171.901 58.6375C171.654 58.8842 171.406 59.1327 171.159 59.1327C170.912 59.3794 170.664 59.3794 170.417 59.6278C170.17 59.8746 169.922 59.8746 169.428 59.8746H168.44H167.451C167.204 59.8746 166.709 59.6278 166.463 59.6278C166.216 59.6278 165.967 59.3811 165.721 59.1327C165.47 58.8894 165.224 58.6426 164.977 58.3941ZM185.754 42.5637C185.754 43.8008 185.259 45.0379 184.27 46.0265C183.28 47.0169 182.044 47.5121 180.807 47.5121H179.819C179.572 47.5121 179.077 47.2654 178.83 47.2654C178.583 47.2654 178.335 47.0186 178.088 46.7702C177.841 46.5234 177.593 46.5234 177.346 46.275C177.099 46.0283 176.851 45.7798 176.851 45.5331C176.604 45.2863 176.604 45.0379 176.356 44.5444C176.356 44.2977 176.109 44.0492 176.109 43.5558V42.5671C176.109 41.33 176.604 40.0929 177.593 39.1043C177.84 38.8576 178.088 38.6091 178.335 38.6091C178.581 38.3624 178.83 38.3624 179.077 38.1139C179.323 37.8672 179.572 37.8672 180.065 37.8672C181.798 37.6205 183.281 38.1139 184.517 39.1043C185.259 40.0912 185.754 41.3284 185.754 42.5637ZM151.126 43.5541V42.5654C151.126 41.3283 151.621 40.0912 152.61 39.1026C153.847 37.8655 155.577 37.3703 157.061 37.8655C157.308 37.8655 157.556 38.1123 158.05 38.1123C158.296 38.1123 158.545 38.359 158.792 38.6074C159.038 38.8542 159.287 38.8542 159.534 39.1026C160.522 40.0913 161.017 41.3284 161.017 42.5654V43.5541C161.017 43.8008 160.771 44.0493 160.771 44.5427C160.771 44.7895 160.524 45.0379 160.275 45.2846C160.029 45.5314 159.78 45.7798 159.78 46.0266C159.534 46.2733 159.285 46.5218 159.038 46.5218C158.792 46.7685 158.543 46.7685 158.296 47.0169C158.05 47.2637 157.801 47.2637 157.308 47.2637H156.319C155.082 47.2637 153.845 46.7685 152.856 45.7798C152.61 45.5331 152.361 45.2846 152.361 45.0379C152.361 44.7912 152.114 44.5427 151.866 44.296C151.372 44.0493 151.373 43.8008 151.126 43.5541Z" fill="#FF8F3E"/>
<path d="M173.882 81.6464C172.15 78.1836 168.687 76.2047 164.978 76.2047H121.443L142.715 15.1093C143.704 12.1416 143.21 8.67866 141.478 6.20472C139.746 3.48379 136.532 2 133.316 2H74.4464C70.2417 2 66.5303 4.72093 65.0467 8.67888L28.9327 112.566C27.9441 115.533 28.4376 118.996 30.1698 121.47C31.9021 124.191 35.1164 125.675 38.3324 125.675H75.1879L65.7882 200.869C65.293 205.321 67.7672 209.528 71.725 211.258C72.9621 211.753 74.1992 212 75.4346 212C78.4023 212 81.3714 210.516 83.3507 208.042L172.397 92.035C175.118 88.8206 175.364 84.8627 173.88 81.6463L173.882 81.6464ZM77.9244 199.189C77.3036 199.998 76.013 199.468 76.139 198.457L85.0824 126.664C85.3291 123.943 84.5872 120.975 82.6082 118.997C80.6291 116.771 77.9081 115.534 75.1872 115.534H39.7393C39.0514 115.534 38.5689 114.855 38.7948 114.205L74.2135 12.3186C74.3533 11.9165 74.7323 11.6469 75.158 11.6469H131.909C132.597 11.6469 133.08 12.3259 132.854 12.9758L112.044 72.7423C111.055 75.71 111.549 79.173 113.281 81.6469C115.013 84.3679 118.228 85.8516 121.444 85.8516H162.948C163.777 85.8516 164.246 86.8031 163.741 87.4608L77.9244 199.189Z" fill="#383680" stroke="white" stroke-width="4"/>
</svg>
