<svg width="19" height="18" viewBox="0 0 19 18" fill="none" xmlns="http://www.w3.org/2000/svg">
<path d="M8.7163 1.2405L8.84593 1.09035C9.32122 0.615067 10.065 0.571861 10.5891 0.960729L10.7392 1.09035L17.8808 8.23177C18.3562 8.70712 18.3993 9.45098 18.0103 9.97507L17.8806 10.1252L10.7378 17.2652C10.2149 17.7879 9.36721 17.7877 8.84449 17.2648C8.36928 16.7894 8.32622 16.0457 8.71519 15.5217L8.84485 15.3715L13.7036 10.5151L1.75869 10.5157C1.08093 10.5157 0.520792 10.012 0.432143 9.35859L0.419922 9.17694C0.419922 8.49918 0.923575 7.93906 1.57703 7.85042L1.75869 7.83819L13.7 7.83767L8.84593 2.98362C8.37063 2.50833 8.32742 1.76459 8.7163 1.2405Z" fill="#FF8F3E"/>
</svg>
