<svg width="12" height="12" viewBox="0 0 12 12" fill="none" xmlns="http://www.w3.org/2000/svg">
<g clip-path="url(#clip0_8648_7237)">
<path fill-rule="evenodd" clip-rule="evenodd" d="M4.02699 9.96487H6.08299V8.49636H4.02699V9.96487ZM4.32073 8.79011H5.78924V9.67112H4.32051L4.32073 8.79011Z" fill="#383680"/>
<path d="M6.81713 2.32855H4.17386C4.13491 2.32855 4.09755 2.31307 4.07001 2.28553C4.04246 2.25799 4.02699 2.22063 4.02699 2.18167C4.02699 2.14272 4.04246 2.10536 4.07001 2.07782C4.09755 2.05028 4.13491 2.0348 4.17386 2.0348H6.81713C6.85609 2.0348 6.89344 2.05028 6.92099 2.07782C6.94853 2.10536 6.96401 2.14272 6.96401 2.18167C6.96401 2.22063 6.94853 2.25799 6.92099 2.28553C6.89344 2.31307 6.85609 2.32855 6.81713 2.32855Z" fill="#383680"/>
<path d="M8.87313 3.79688H4.17386C4.13491 3.79688 4.09755 3.81235 4.07001 3.83989C4.04246 3.86744 4.02699 3.9048 4.02699 3.94375C4.02699 3.9827 4.04246 4.02006 4.07001 4.0476C4.09755 4.07515 4.13491 4.09062 4.17386 4.09062H8.87313C8.91209 4.09062 8.94944 4.07515 8.97699 4.0476C9.00453 4.02006 9.02001 3.9827 9.02001 3.94375C9.02001 3.9048 9.00453 3.86744 8.97699 3.83989C8.94944 3.81235 8.91209 3.79688 8.87313 3.79688Z" fill="#383680"/>
<path d="M5.93612 5.26543H4.17386C4.13491 5.26543 4.09755 5.24995 4.07001 5.22241C4.04246 5.19486 4.02699 5.15751 4.02699 5.11855C4.02699 5.0796 4.04246 5.04224 4.07001 5.0147C4.09755 4.98715 4.13491 4.97168 4.17386 4.97168H5.93612C5.97507 4.97168 6.01243 4.98715 6.03997 5.0147C6.06752 5.04224 6.08299 5.0796 6.08299 5.11855C6.08299 5.15751 6.06752 5.19486 6.03997 5.22241C6.01243 5.24995 5.97507 5.26543 5.93612 5.26543Z" fill="#383680"/>
<path d="M8.87326 4.97168H7.11101C7.07205 4.97168 7.0347 4.98715 7.00715 5.0147C6.97961 5.04224 6.96413 5.0796 6.96413 5.11855C6.96413 5.15751 6.97961 5.19486 7.00715 5.22241C7.0347 5.24995 7.07205 5.26543 7.11101 5.26543H8.87326C8.91221 5.26543 8.94957 5.24995 8.97712 5.22241C9.00466 5.19486 9.02013 5.15751 9.02013 5.11855C9.02013 5.0796 9.00466 5.04224 8.97712 5.0147C8.94957 4.98715 8.91221 4.97168 8.87326 4.97168Z" fill="#383680"/>
<path d="M5.93612 6.44023H4.17386C4.13491 6.44023 4.09755 6.42476 4.07001 6.39721C4.04246 6.36967 4.02699 6.33231 4.02699 6.29336C4.02699 6.2544 4.04246 6.21705 4.07001 6.1895C4.09755 6.16196 4.13491 6.14648 4.17386 6.14648H5.93612C5.97507 6.14648 6.01243 6.16196 6.03997 6.1895C6.06752 6.21705 6.08299 6.2544 6.08299 6.29336C6.08299 6.33231 6.06752 6.36967 6.03997 6.39721C6.01243 6.42476 5.97507 6.44023 5.93612 6.44023Z" fill="#383680"/>
<path d="M8.87326 6.14648H7.11101C7.07205 6.14648 7.0347 6.16196 7.00715 6.1895C6.97961 6.21705 6.96413 6.2544 6.96413 6.29336C6.96413 6.33231 6.97961 6.36967 7.00715 6.39721C7.0347 6.42476 7.07205 6.44023 7.11101 6.44023H8.87326C8.91221 6.44023 8.94957 6.42476 8.97712 6.39721C9.00466 6.36967 9.02013 6.33231 9.02013 6.29336C9.02013 6.2544 9.00466 6.21705 8.97712 6.1895C8.94957 6.16196 8.91221 6.14648 8.87326 6.14648Z" fill="#383680"/>
<path d="M4.17386 7.32156H8.87313C8.91209 7.32156 8.94944 7.33703 8.97699 7.36457C9.00453 7.39212 9.02001 7.42948 9.02001 7.46843C9.02001 7.50738 9.00453 7.54474 8.97699 7.57228C8.94944 7.59983 8.91209 7.6153 8.87313 7.6153H4.17386C4.13491 7.6153 4.09755 7.59983 4.07001 7.57228C4.04246 7.54474 4.02699 7.50738 4.02699 7.46843C4.02699 7.42948 4.04246 7.39212 4.07001 7.36457C4.09755 7.33703 4.13491 7.32156 4.17386 7.32156Z" fill="#383680"/>
<path d="M8.87326 8.49636H7.11101C7.07205 8.49636 7.0347 8.51183 7.00715 8.53938C6.97961 8.56692 6.96413 8.60428 6.96413 8.64323C6.96413 8.68219 6.97961 8.71954 7.00715 8.74709C7.0347 8.77463 7.07205 8.79011 7.11101 8.79011H8.87326C8.91221 8.79011 8.94957 8.77463 8.97712 8.74709C9.00466 8.71954 9.02013 8.68219 9.02013 8.64323C9.02013 8.60428 9.00466 8.56692 8.97712 8.53938C8.94957 8.51183 8.91221 8.49636 8.87326 8.49636Z" fill="#383680"/>
<path d="M7.11101 9.6709H8.87326C8.91221 9.6709 8.94957 9.68637 8.97712 9.71392C9.00466 9.74146 9.02013 9.77882 9.02013 9.81777C9.02013 9.85672 9.00466 9.89408 8.97712 9.92163C8.94957 9.94917 8.91221 9.96465 8.87326 9.96465H7.11101C7.07205 9.96465 7.0347 9.94917 7.00715 9.92163C6.97961 9.89408 6.96413 9.85672 6.96413 9.81777C6.96413 9.77882 6.97961 9.74146 7.00715 9.71392C7.0347 9.68637 7.07205 9.6709 7.11101 9.6709Z" fill="#383680"/>
<path fill-rule="evenodd" clip-rule="evenodd" d="M8.93397 0.272461H1.97108C1.73748 0.272698 1.5135 0.365588 1.34829 0.530752C1.18309 0.695917 1.09014 0.919869 1.08984 1.15348V10.846C1.09014 11.0796 1.18309 11.3036 1.34829 11.4687C1.5135 11.6339 1.73748 11.7268 1.97108 11.727H9.90112C10.1347 11.7267 10.3586 11.6338 10.5238 11.4686C10.6889 11.3035 10.7818 11.0796 10.7821 10.846V2.12085L8.93397 0.272461ZM9.0201 0.773821L10.2808 2.03472H9.0201V0.773821ZM1.97108 11.4333C1.81531 11.4331 1.66594 11.3712 1.55579 11.2611C1.44564 11.1509 1.38371 11.0015 1.38359 10.8458V1.15348C1.38377 0.997739 1.44573 0.848434 1.55587 0.738332C1.66602 0.62823 1.81535 0.566326 1.97108 0.566207H2.48967C2.4843 0.572248 2.47893 0.578512 2.47379 0.584776L2.46528 0.59462C2.45888 0.602259 2.45287 0.610088 2.4467 0.618108L2.44515 0.620124L2.43665 0.631534C2.42971 0.64093 2.423 0.650327 2.41651 0.659723C2.41294 0.665079 2.40959 0.670436 2.40625 0.675792L2.40178 0.682786C2.3994 0.686485 2.39687 0.690412 2.39459 0.694176C2.39231 0.697933 2.39027 0.701449 2.38823 0.704964L2.38407 0.712074C2.38169 0.716098 2.3795 0.719924 2.37732 0.723749L2.37401 0.729524C2.37065 0.735341 2.36729 0.742053 2.36416 0.748317C2.36103 0.754581 2.35812 0.760174 2.35499 0.765991C2.35301 0.769667 2.35112 0.773791 2.34921 0.777965C2.34809 0.780396 2.34697 0.782844 2.34582 0.785231C2.34295 0.791176 2.34064 0.79637 2.33821 0.801846L2.33754 0.803352C2.33485 0.809393 2.33195 0.816328 2.32926 0.82304L2.32725 0.828029C2.32533 0.83275 2.32354 0.83717 2.32188 0.841832L2.31893 0.849875C2.3175 0.853752 2.31603 0.857726 2.31472 0.86152C2.31248 0.868008 2.31025 0.874496 2.30801 0.881207C2.30577 0.887919 2.30376 0.894407 2.30174 0.901119C2.29973 0.90783 2.29772 0.914766 2.29593 0.921701L2.29386 0.929524C2.29278 0.933532 2.29174 0.937418 2.29078 0.941388C2.28922 0.947876 2.28743 0.955707 2.28586 0.963761C2.28495 0.968423 2.28412 0.972036 2.28332 0.97551C2.28274 0.978032 2.28217 0.980498 2.28161 0.983224C2.28082 0.987041 2.28003 0.991631 2.27924 0.996222C2.27869 0.999435 2.27813 1.00265 2.27758 1.0056C2.27624 1.01276 2.27534 1.01813 2.27445 1.02461C2.27355 1.0311 2.27221 1.04117 2.27132 1.04945C2.27094 1.05291 2.27061 1.05552 2.27031 1.05782C2.2699 1.06101 2.26956 1.06361 2.2693 1.06712C2.2693 1.0731 2.26867 1.07908 2.26804 1.08506C2.26767 1.08848 2.26731 1.09189 2.26707 1.09531V10.9055C2.26707 10.9126 2.26784 10.9199 2.2686 10.927L2.2693 10.9339C2.2693 10.9378 2.26991 10.9418 2.27051 10.9458C2.27081 10.9478 2.2711 10.9497 2.27132 10.9516C2.27199 10.9574 2.27333 10.9681 2.27445 10.9764C2.27527 10.9825 2.27598 10.9864 2.27674 10.9907L2.27758 10.9954C2.2787 11.0019 2.28027 11.0107 2.28161 11.0178C2.28295 11.025 2.28429 11.0308 2.28586 11.0373C2.28672 11.0409 2.28759 11.0449 2.28849 11.0491C2.28922 11.0526 2.28998 11.0561 2.29078 11.0596C2.29229 11.0662 2.29363 11.0711 2.29509 11.0763L2.29593 11.0793C2.29772 11.0858 2.29973 11.093 2.30174 11.0999C2.30376 11.1069 2.30577 11.1131 2.30801 11.1198L2.30967 11.1249C2.31129 11.1298 2.31288 11.1347 2.31472 11.1395C2.31595 11.1428 2.31712 11.1461 2.3183 11.1494C2.31947 11.1527 2.32065 11.156 2.32188 11.1592C2.32352 11.1635 2.32516 11.1677 2.3268 11.1718L2.32926 11.178C2.33172 11.1843 2.33463 11.1912 2.33754 11.1977L2.33891 11.2008C2.34125 11.206 2.34338 11.2107 2.34582 11.2158L2.34924 11.2231C2.35112 11.2271 2.35306 11.2312 2.35499 11.235C2.35812 11.2413 2.36103 11.2469 2.36416 11.2527C2.36574 11.2557 2.36738 11.2588 2.36905 11.262C2.37067 11.2652 2.37236 11.2684 2.37401 11.2715C2.37624 11.2757 2.37848 11.2795 2.38072 11.2832L2.38407 11.289L2.38526 11.291C2.38827 11.2962 2.39143 11.3017 2.39459 11.3069C2.39658 11.3101 2.39879 11.3135 2.401 11.3169C2.40277 11.3196 2.40454 11.3223 2.40622 11.325C2.41002 11.331 2.41316 11.3357 2.41674 11.3411C2.42322 11.3505 2.42971 11.3597 2.43642 11.3688L2.44537 11.3809C2.45186 11.3894 2.45835 11.3979 2.46528 11.4062L2.47379 11.416L2.47939 11.4226C2.4828 11.4267 2.48619 11.4307 2.48967 11.4346L1.97108 11.4333ZM9.90112 11.4333H3.14585C2.99003 11.4333 2.84059 11.3714 2.73035 11.2613C2.6201 11.1512 2.55808 11.0018 2.5579 10.846V1.15348C2.55802 0.9977 2.61996 0.848338 2.73011 0.738187C2.84026 0.628037 2.98962 0.566102 3.1454 0.565984H8.72636V2.18148C8.72636 2.2204 8.74182 2.25773 8.76934 2.28525C8.79687 2.31278 8.83419 2.32824 8.87312 2.32824H10.4886V10.846C10.4884 11.0017 10.4265 11.151 10.3163 11.2611C10.2062 11.3712 10.0569 11.4331 9.90112 11.4333Z" fill="#383680"/>
<path fill-rule="evenodd" clip-rule="evenodd" d="M4.02699 9.96487H6.08299V8.49636H4.02699V9.96487ZM4.32073 8.79011H5.78924V9.67112H4.32051L4.32073 8.79011Z" stroke="#383680" stroke-width="0.5"/>
<path d="M6.81713 2.32855H4.17386C4.13491 2.32855 4.09755 2.31307 4.07001 2.28553C4.04246 2.25799 4.02699 2.22063 4.02699 2.18167C4.02699 2.14272 4.04246 2.10536 4.07001 2.07782C4.09755 2.05028 4.13491 2.0348 4.17386 2.0348H6.81713C6.85609 2.0348 6.89344 2.05028 6.92099 2.07782C6.94853 2.10536 6.96401 2.14272 6.96401 2.18167C6.96401 2.22063 6.94853 2.25799 6.92099 2.28553C6.89344 2.31307 6.85609 2.32855 6.81713 2.32855Z" stroke="#383680" stroke-width="0.5"/>
<path d="M8.87313 3.79688H4.17386C4.13491 3.79688 4.09755 3.81235 4.07001 3.83989C4.04246 3.86744 4.02699 3.9048 4.02699 3.94375C4.02699 3.9827 4.04246 4.02006 4.07001 4.0476C4.09755 4.07515 4.13491 4.09062 4.17386 4.09062H8.87313C8.91209 4.09062 8.94944 4.07515 8.97699 4.0476C9.00453 4.02006 9.02001 3.9827 9.02001 3.94375C9.02001 3.9048 9.00453 3.86744 8.97699 3.83989C8.94944 3.81235 8.91209 3.79688 8.87313 3.79688Z" stroke="#383680" stroke-width="0.5"/>
<path d="M5.93612 5.26543H4.17386C4.13491 5.26543 4.09755 5.24995 4.07001 5.22241C4.04246 5.19486 4.02699 5.15751 4.02699 5.11855C4.02699 5.0796 4.04246 5.04224 4.07001 5.0147C4.09755 4.98715 4.13491 4.97168 4.17386 4.97168H5.93612C5.97507 4.97168 6.01243 4.98715 6.03997 5.0147C6.06752 5.04224 6.08299 5.0796 6.08299 5.11855C6.08299 5.15751 6.06752 5.19486 6.03997 5.22241C6.01243 5.24995 5.97507 5.26543 5.93612 5.26543Z" stroke="#383680" stroke-width="0.5"/>
<path d="M8.87326 4.97168H7.11101C7.07205 4.97168 7.0347 4.98715 7.00715 5.0147C6.97961 5.04224 6.96413 5.0796 6.96413 5.11855C6.96413 5.15751 6.97961 5.19486 7.00715 5.22241C7.0347 5.24995 7.07205 5.26543 7.11101 5.26543H8.87326C8.91221 5.26543 8.94957 5.24995 8.97712 5.22241C9.00466 5.19486 9.02013 5.15751 9.02013 5.11855C9.02013 5.0796 9.00466 5.04224 8.97712 5.0147C8.94957 4.98715 8.91221 4.97168 8.87326 4.97168Z" stroke="#383680" stroke-width="0.5"/>
<path d="M5.93612 6.44023H4.17386C4.13491 6.44023 4.09755 6.42476 4.07001 6.39721C4.04246 6.36967 4.02699 6.33231 4.02699 6.29336C4.02699 6.2544 4.04246 6.21705 4.07001 6.1895C4.09755 6.16196 4.13491 6.14648 4.17386 6.14648H5.93612C5.97507 6.14648 6.01243 6.16196 6.03997 6.1895C6.06752 6.21705 6.08299 6.2544 6.08299 6.29336C6.08299 6.33231 6.06752 6.36967 6.03997 6.39721C6.01243 6.42476 5.97507 6.44023 5.93612 6.44023Z" stroke="#383680" stroke-width="0.5"/>
<path d="M8.87326 6.14648H7.11101C7.07205 6.14648 7.0347 6.16196 7.00715 6.1895C6.97961 6.21705 6.96413 6.2544 6.96413 6.29336C6.96413 6.33231 6.97961 6.36967 7.00715 6.39721C7.0347 6.42476 7.07205 6.44023 7.11101 6.44023H8.87326C8.91221 6.44023 8.94957 6.42476 8.97712 6.39721C9.00466 6.36967 9.02013 6.33231 9.02013 6.29336C9.02013 6.2544 9.00466 6.21705 8.97712 6.1895C8.94957 6.16196 8.91221 6.14648 8.87326 6.14648Z" stroke="#383680" stroke-width="0.5"/>
<path d="M4.17386 7.32156H8.87313C8.91209 7.32156 8.94944 7.33703 8.97699 7.36457C9.00453 7.39212 9.02001 7.42948 9.02001 7.46843C9.02001 7.50738 9.00453 7.54474 8.97699 7.57228C8.94944 7.59983 8.91209 7.6153 8.87313 7.6153H4.17386C4.13491 7.6153 4.09755 7.59983 4.07001 7.57228C4.04246 7.54474 4.02699 7.50738 4.02699 7.46843C4.02699 7.42948 4.04246 7.39212 4.07001 7.36457C4.09755 7.33703 4.13491 7.32156 4.17386 7.32156Z" stroke="#383680" stroke-width="0.5"/>
<path d="M8.87326 8.49636H7.11101C7.07205 8.49636 7.0347 8.51183 7.00715 8.53938C6.97961 8.56692 6.96413 8.60428 6.96413 8.64323C6.96413 8.68219 6.97961 8.71954 7.00715 8.74709C7.0347 8.77463 7.07205 8.79011 7.11101 8.79011H8.87326C8.91221 8.79011 8.94957 8.77463 8.97712 8.74709C9.00466 8.71954 9.02013 8.68219 9.02013 8.64323C9.02013 8.60428 9.00466 8.56692 8.97712 8.53938C8.94957 8.51183 8.91221 8.49636 8.87326 8.49636Z" stroke="#383680" stroke-width="0.5"/>
<path d="M7.11101 9.6709H8.87326C8.91221 9.6709 8.94957 9.68637 8.97712 9.71392C9.00466 9.74146 9.02013 9.77882 9.02013 9.81777C9.02013 9.85672 9.00466 9.89408 8.97712 9.92163C8.94957 9.94917 8.91221 9.96465 8.87326 9.96465H7.11101C7.07205 9.96465 7.0347 9.94917 7.00715 9.92163C6.97961 9.89408 6.96413 9.85672 6.96413 9.81777C6.96413 9.77882 6.97961 9.74146 7.00715 9.71392C7.0347 9.68637 7.07205 9.6709 7.11101 9.6709Z" stroke="#383680" stroke-width="0.5"/>
<path fill-rule="evenodd" clip-rule="evenodd" d="M8.93397 0.272461H1.97108C1.73748 0.272698 1.5135 0.365588 1.34829 0.530752C1.18309 0.695917 1.09014 0.919869 1.08984 1.15348V10.846C1.09014 11.0796 1.18309 11.3036 1.34829 11.4687C1.5135 11.6339 1.73748 11.7268 1.97108 11.727H9.90112C10.1347 11.7267 10.3586 11.6338 10.5238 11.4686C10.6889 11.3035 10.7818 11.0796 10.7821 10.846V2.12085L8.93397 0.272461ZM9.0201 0.773821L10.2808 2.03472H9.0201V0.773821ZM1.97108 11.4333C1.81531 11.4331 1.66594 11.3712 1.55579 11.2611C1.44564 11.1509 1.38371 11.0015 1.38359 10.8458V1.15348C1.38377 0.997739 1.44573 0.848434 1.55587 0.738332C1.66602 0.62823 1.81535 0.566326 1.97108 0.566207H2.48967C2.4843 0.572248 2.47893 0.578512 2.47379 0.584776L2.46528 0.59462C2.45888 0.602259 2.45287 0.610088 2.4467 0.618108L2.44515 0.620124L2.43665 0.631534C2.42971 0.64093 2.423 0.650327 2.41651 0.659723C2.41294 0.665079 2.40959 0.670436 2.40625 0.675792L2.40178 0.682786C2.3994 0.686485 2.39687 0.690412 2.39459 0.694176C2.39231 0.697933 2.39027 0.701449 2.38823 0.704964L2.38407 0.712074C2.38169 0.716098 2.3795 0.719924 2.37732 0.723749L2.37401 0.729524C2.37065 0.735341 2.36729 0.742053 2.36416 0.748317C2.36103 0.754581 2.35812 0.760174 2.35499 0.765991C2.35301 0.769667 2.35112 0.773791 2.34921 0.777965C2.34809 0.780396 2.34697 0.782844 2.34582 0.785231C2.34295 0.791176 2.34064 0.79637 2.33821 0.801846L2.33754 0.803352C2.33485 0.809393 2.33195 0.816328 2.32926 0.82304L2.32725 0.828029C2.32533 0.83275 2.32354 0.83717 2.32188 0.841832L2.31893 0.849875C2.3175 0.853752 2.31603 0.857726 2.31472 0.86152C2.31248 0.868008 2.31025 0.874496 2.30801 0.881207C2.30577 0.887919 2.30376 0.894407 2.30174 0.901119C2.29973 0.90783 2.29772 0.914766 2.29593 0.921701L2.29386 0.929524C2.29278 0.933532 2.29174 0.937418 2.29078 0.941388C2.28922 0.947876 2.28743 0.955707 2.28586 0.963761C2.28495 0.968423 2.28412 0.972036 2.28332 0.97551C2.28274 0.978032 2.28217 0.980498 2.28161 0.983224C2.28082 0.987041 2.28003 0.991631 2.27924 0.996222C2.27869 0.999435 2.27813 1.00265 2.27758 1.0056C2.27624 1.01276 2.27534 1.01813 2.27445 1.02461C2.27355 1.0311 2.27221 1.04117 2.27132 1.04945C2.27094 1.05291 2.27061 1.05552 2.27031 1.05782C2.2699 1.06101 2.26956 1.06361 2.2693 1.06712C2.2693 1.0731 2.26867 1.07908 2.26804 1.08506C2.26767 1.08848 2.26731 1.09189 2.26707 1.09531V10.9055C2.26707 10.9126 2.26784 10.9199 2.2686 10.927L2.2693 10.9339C2.2693 10.9378 2.26991 10.9418 2.27051 10.9458C2.27081 10.9478 2.2711 10.9497 2.27132 10.9516C2.27199 10.9574 2.27333 10.9681 2.27445 10.9764C2.27527 10.9825 2.27598 10.9864 2.27674 10.9907L2.27758 10.9954C2.2787 11.0019 2.28027 11.0107 2.28161 11.0178C2.28295 11.025 2.28429 11.0308 2.28586 11.0373C2.28672 11.0409 2.28759 11.0449 2.28849 11.0491C2.28922 11.0526 2.28998 11.0561 2.29078 11.0596C2.29229 11.0662 2.29363 11.0711 2.29509 11.0763L2.29593 11.0793C2.29772 11.0858 2.29973 11.093 2.30174 11.0999C2.30376 11.1069 2.30577 11.1131 2.30801 11.1198L2.30967 11.1249C2.31129 11.1298 2.31288 11.1347 2.31472 11.1395C2.31595 11.1428 2.31712 11.1461 2.3183 11.1494C2.31947 11.1527 2.32065 11.156 2.32188 11.1592C2.32352 11.1635 2.32516 11.1677 2.3268 11.1718L2.32926 11.178C2.33172 11.1843 2.33463 11.1912 2.33754 11.1977L2.33891 11.2008C2.34125 11.206 2.34338 11.2107 2.34582 11.2158L2.34924 11.2231C2.35112 11.2271 2.35306 11.2312 2.35499 11.235C2.35812 11.2413 2.36103 11.2469 2.36416 11.2527C2.36574 11.2557 2.36738 11.2588 2.36905 11.262C2.37067 11.2652 2.37236 11.2684 2.37401 11.2715C2.37624 11.2757 2.37848 11.2795 2.38072 11.2832L2.38407 11.289L2.38526 11.291C2.38827 11.2962 2.39143 11.3017 2.39459 11.3069C2.39658 11.3101 2.39879 11.3135 2.401 11.3169C2.40277 11.3196 2.40454 11.3223 2.40622 11.325C2.41002 11.331 2.41316 11.3357 2.41674 11.3411C2.42322 11.3505 2.42971 11.3597 2.43642 11.3688L2.44537 11.3809C2.45186 11.3894 2.45835 11.3979 2.46528 11.4062L2.47379 11.416L2.47939 11.4226C2.4828 11.4267 2.48619 11.4307 2.48967 11.4346L1.97108 11.4333ZM9.90112 11.4333H3.14585C2.99003 11.4333 2.84059 11.3714 2.73035 11.2613C2.6201 11.1512 2.55808 11.0018 2.5579 10.846V1.15348C2.55802 0.9977 2.61996 0.848338 2.73011 0.738187C2.84026 0.628037 2.98962 0.566102 3.1454 0.565984H8.72636V2.18148C8.72636 2.2204 8.74182 2.25773 8.76934 2.28525C8.79687 2.31278 8.83419 2.32824 8.87312 2.32824H10.4886V10.846C10.4884 11.0017 10.4265 11.151 10.3163 11.2611C10.2062 11.3712 10.0569 11.4331 9.90112 11.4333Z" stroke="#383680" stroke-width="0.5"/>
</g>
<defs>
<clipPath id="clip0_8648_7237">
<rect width="12" height="12" fill="white"/>
</clipPath>
</defs>
</svg>
