<svg width="104" height="103" viewBox="0 0 104 103" fill="none" xmlns="http://www.w3.org/2000/svg">
<rect x="0.666748" width="103" height="103" rx="51.5" fill="#383680"/>
<path d="M71.1856 50.2966H71.7531L71.753 50.2967H72.8394C73.5038 50.2967 74.0432 50.8361 74.0432 51.5005C74.0432 52.1649 73.5038 52.7043 72.8394 52.7043H71.1856H70.7356V53.1543V56.4619C70.7356 56.9054 70.4914 57.3137 70.0991 57.5238L70.0988 57.5239C69.9222 57.6186 69.7268 57.6658 69.5318 57.6658C69.2978 57.6658 69.066 57.5983 68.8651 57.4638L68.8644 57.4634L61.4222 52.5019L61.4221 52.5018C61.0866 52.2784 60.8858 51.9033 60.8858 51.5005C60.8858 51.0975 61.0868 50.7222 61.4213 50.4989L68.8633 45.5376L68.8636 45.5373C69.2336 45.2903 69.7091 45.2679 70.0981 45.4774L70.1 45.4784C70.4913 45.6868 70.7356 46.0945 70.7356 46.539V49.8466V50.2966H71.1856ZM67.6284 53.7462L68.328 54.2125V53.3717V49.6292V48.7884L67.6284 49.2547L64.821 51.126L64.2592 51.5005L64.821 51.8749L67.6284 53.7462Z" fill="white" stroke="#383680" stroke-width="0.9"/>
<path d="M50.9622 31.6538C50.9622 30.9894 51.5016 30.45 52.166 30.45C52.8304 30.45 53.3698 30.9894 53.3698 31.6538V71.3455C53.3698 72.0099 52.8304 72.5493 52.166 72.5493C51.5016 72.5493 50.9622 72.0099 50.9622 71.3455V31.6538Z" fill="white" stroke="#383680" stroke-width="0.9"/>
<path d="M43.4478 51.4966C43.4455 51.0964 43.245 50.7243 42.9115 50.5022L42.9114 50.5021L35.4692 45.5406L35.469 45.5406C35.1006 45.2948 34.6257 45.2715 34.233 45.4812L43.4478 51.4966ZM43.4478 51.4966V51.5035C43.4478 51.9064 43.2469 52.2815 42.9115 52.5049L42.9113 52.505L35.4692 57.4664L35.4687 57.4668C35.2681 57.6008 35.0354 57.6688 34.8018 57.6688C34.6066 57.6688 34.412 57.6219 34.2332 57.5267C33.842 57.3166 33.598 56.9084 33.598 56.465V53.1574V52.7074H33.148H31.4941C30.8298 52.7074 30.2903 52.1679 30.2903 51.5035C30.2903 50.8391 30.8298 50.2997 31.4941 50.2997H33.148H33.598V49.8497V46.5421C33.598 46.0976 33.8427 45.6896 34.233 45.4812L43.4478 51.4966ZM36.0056 53.3748V54.2156L36.7052 53.7493L39.5126 51.878L40.0744 51.5036L39.5126 51.1291L36.7052 49.2578L36.0056 48.7915V49.6323V53.3748Z" fill="white" stroke="#383680" stroke-width="0.9"/>
<path d="M58.3325 51.4998C58.3326 47.5138 59.5456 42.689 60.7492 38.8746C61.9522 35.0621 63.1613 32.2117 63.197 32.1285C63.4587 31.5169 63.1754 30.8097 62.5641 30.5478L58.3325 51.4998ZM58.3325 51.4998C58.3325 55.4855 59.5456 60.3106 60.7492 64.1251C61.9521 67.9376 63.1612 70.7881 63.197 70.8715C63.4585 71.4826 63.1755 72.1897 62.5639 72.4515L62.5636 72.4516C62.4082 72.5183 62.2486 72.5492 62.0909 72.5492C61.6225 72.5492 61.1786 72.2749 60.9841 71.8201L60.9837 71.8191C60.883 71.5852 59.6155 68.6041 58.374 64.6243C57.1296 60.6356 55.9249 55.6854 55.9249 51.5C55.9249 47.3146 57.1296 42.3644 58.374 38.3757C59.6155 34.3958 60.883 31.4148 60.9837 31.1809L60.9842 31.1798M58.3325 51.4998L60.9842 31.1798M60.9842 31.1798C61.245 30.569 61.9509 30.2858 62.5639 30.5478L60.9842 31.1798Z" fill="white" stroke="#383680" stroke-width="0.9"/>
<mask id="path-6-inside-1_5639_58058" fill="white">
<path d="M41.5913 30.1346C40.7518 30.4942 40.3635 31.4658 40.7223 32.306C40.771 32.4186 45.5505 43.673 45.5505 51.5007C45.5505 59.3285 40.771 70.582 40.723 70.6954C40.3635 71.5349 40.7529 72.5065 41.592 72.8661C41.8039 72.9573 42.0247 73.0001 42.2421 73.0001C42.8837 73.0001 43.4939 72.6246 43.7627 71.9979C43.9712 71.5124 48.8581 60.011 48.8581 51.5009C48.8581 42.9908 43.9712 31.4888 43.7627 31.004C43.4031 30.1645 42.4315 29.7769 41.5913 30.1357L41.5913 30.1346Z"/>
</mask>
<path d="M41.5913 30.1346C40.7518 30.4942 40.3635 31.4658 40.7223 32.306C40.771 32.4186 45.5505 43.673 45.5505 51.5007C45.5505 59.3285 40.771 70.582 40.723 70.6954C40.3635 71.5349 40.7529 72.5065 41.592 72.8661C41.8039 72.9573 42.0247 73.0001 42.2421 73.0001C42.8837 73.0001 43.4939 72.6246 43.7627 71.9979C43.9712 71.5124 48.8581 60.011 48.8581 51.5009C48.8581 42.9908 43.9712 31.4888 43.7627 31.004C43.4031 30.1645 42.4315 29.7769 41.5913 30.1357L41.5913 30.1346Z" fill="white"/>
<path d="M41.5913 30.1346L42.4912 30.143L42.504 28.7646L41.2369 29.3073L41.5913 30.1346ZM40.7223 32.306L39.8946 32.6595L39.8963 32.6635L40.7223 32.306ZM40.723 70.6954L41.5503 71.0498L41.5518 71.0463L40.723 70.6954ZM41.592 72.8661L41.9478 72.0394L41.9465 72.0388L41.592 72.8661ZM43.7627 71.9979L42.9358 71.6426L42.9355 71.6432L43.7627 71.9979ZM43.7627 31.004L42.9354 31.3583L42.9359 31.3596L43.7627 31.004ZM41.5913 30.1357L40.6913 30.1274L40.6785 31.5041L41.9447 30.9634L41.5913 30.1357ZM41.2369 29.3073C39.9398 29.8629 39.3412 31.3636 39.8946 32.6595L41.55 31.9526C41.3857 31.568 41.5639 31.1255 41.9456 30.9619L41.2369 29.3073ZM39.8963 32.6635C39.896 32.6627 39.9006 32.6735 39.9111 32.6985C39.921 32.722 39.9353 32.756 39.9536 32.8C39.9903 32.8881 40.0431 33.016 40.1097 33.1803C40.2429 33.5088 40.4313 33.9824 40.6563 34.5726C41.1065 35.7534 41.7023 37.3984 42.2964 39.281C43.492 43.0703 44.6505 47.7314 44.6505 51.5007H46.4505C46.4505 47.4423 45.2192 42.5624 44.0129 38.7394C42.8003 34.8962 41.5812 32.0247 41.5482 31.9486L39.8963 32.6635ZM44.6505 51.5007C44.6505 55.2701 43.492 59.931 42.2965 63.7201C41.1077 67.4878 39.913 70.3003 39.8942 70.3446L41.5518 71.0463C41.5811 70.9771 42.8001 68.1062 44.0131 64.2618C45.2192 60.4389 46.4505 55.5592 46.4505 51.5007H44.6505ZM39.8957 70.3411C39.3403 71.6378 39.9421 73.1382 41.2375 73.6933L41.9465 72.0388C41.5638 71.8748 41.3867 71.4319 41.5503 71.0498L39.8957 70.3411ZM41.2363 73.6928C41.5637 73.8337 41.9059 73.9001 42.2421 73.9001V72.1001C42.1435 72.1001 42.0441 72.0808 41.9478 72.0394L41.2363 73.6928ZM42.2421 73.9001C43.2308 73.9001 44.1742 73.3218 44.5898 72.3526L42.9355 71.6432C42.8136 71.9274 42.5366 72.1001 42.2421 72.1001V73.9001ZM44.5896 72.3531C44.701 72.0939 45.9875 69.0664 47.2478 65.0267C48.5024 61.0048 49.7581 55.8961 49.7581 51.5009H47.9581C47.9581 55.6158 46.7704 60.5128 45.5295 64.4906C44.2941 68.4505 43.033 71.4164 42.9358 71.6426L44.5896 72.3531ZM49.7581 51.5009C49.7581 47.1057 48.5024 41.9968 47.2478 37.9749C45.9876 33.9352 44.701 30.9076 44.5894 30.6483L42.9359 31.3596C43.0329 31.5851 44.2941 34.5509 45.5295 38.511C46.7704 42.4888 47.9581 47.386 47.9581 51.5009H49.7581ZM44.59 30.6496C44.0341 29.3518 42.533 28.755 41.2378 29.308L41.9447 30.9634C42.3299 30.7989 42.7721 30.9772 42.9354 31.3583L44.59 30.6496ZM42.4912 30.1441L42.4912 30.143L40.6913 30.1263L40.6913 30.1274L42.4912 30.1441Z" fill="#383680" mask="url(#path-6-inside-1_5639_58058)"/>
</svg>
