<svg width="338" height="211" viewBox="0 0 338 211" fill="none" xmlns="http://www.w3.org/2000/svg">
<path d="M43.1231 133.438L43.7212 135.235L25.7906 153.166V150.771L43.1231 133.438Z" fill="#383680"/>
<path d="M44.5024 155.203L44.9036 157.199L25.7912 176.309V173.914L44.5024 155.203Z" fill="#383680"/>
<path d="M44.6678 175.331L45.6262 176.767L25.7815 196.612V194.217L44.6678 175.331Z" fill="#383680"/>
<path d="M2.52487 163.1H23.9671V165.644L2.52487 165.646V163.1Z" fill="#383680"/>
<path d="M2.52302 174.704H23.9653V177.245L2.52302 177.248V174.704Z" fill="#383680"/>
<path d="M2.51841 192.116L23.9607 192.118V194.662H2.51841V192.116Z" fill="#383680"/>
<path d="M82.1513 91.6224V94.0148L67.7251 108.441L67.127 106.647L82.1513 91.6224Z" fill="#383680"/>
<path d="M82.1513 109.003V111.398L72.0872 121.462L71.4891 119.665L82.1513 109.003Z" fill="#383680"/>
<path d="M82.1393 123.566V125.961L70.699 137.404L70.3003 135.405L82.1393 123.566Z" fill="#383680"/>
<path d="M82.1085 140.935V143.327L71.3668 154.071L70.4084 152.635L82.1085 140.935Z" fill="#383680"/>
<path fill-rule="evenodd" clip-rule="evenodd" d="M59.7912 69.2553V69.2529C59.551 69.2529 59.3204 69.349 59.1522 69.5195L41.7068 86.9625L41.6804 86.9889C41.6708 87.0057 41.6636 87.0225 41.6564 87.0394V87.0634C41.6468 87.0802 41.6372 87.097 41.63 87.1162V87.1402C41.6224 87.1535 41.6163 87.1668 41.6094 87.18C41.6075 87.1836 41.6056 87.1871 41.6035 87.1907C41.6016 87.1953 41.5994 87.1999 41.5972 87.2044C41.5954 87.2083 41.5934 87.2121 41.5915 87.2159C41.5873 87.2243 41.5831 87.2327 41.5795 87.2411V87.2675V87.318C41.5771 87.3444 41.5771 87.3684 41.5795 87.3949V87.4213V87.4717V87.5222V87.5726V87.623V87.6735V87.7263V87.7768V87.8272V87.8776L44.3898 96.311L41.5795 104.744V104.747C41.5171 104.932 41.5171 105.134 41.5795 105.321L47.2962 122.475L44.4859 130.909H44.4835C44.4355 131.06 44.4259 131.221 44.4595 131.375L44.51 131.629L43.9503 129.955L43.823 129.569L43.4002 128.296L43.7461 127.251L44.0031 126.482L45.2041 122.886L45.4587 122.12L46.2129 119.86C46.2754 119.672 46.2754 119.471 46.2129 119.283L46.1361 119.055L46.0088 118.671L45.4083 116.872L45.281 116.49L44.6829 114.693L44.5556 114.309L43.9575 112.512L43.8302 112.13L43.3114 110.567H43.3162C43.1913 110.197 42.843 109.947 42.4539 109.947H19.1983C18.9557 109.947 18.7251 110.043 18.5545 110.213L1.11158 127.656C0.941047 127.827 0.844971 128.058 0.844971 128.298V209.699C0.844971 209.939 0.941047 210.169 1.11158 210.34C1.28212 210.51 1.51512 210.604 1.75533 210.604H25.011C25.1623 210.607 25.3112 210.573 25.4457 210.503C25.4648 210.491 25.4839 210.479 25.5022 210.467C25.5091 210.462 25.5159 210.457 25.5226 210.453C25.5358 210.444 25.5484 210.436 25.561 210.428C25.5736 210.419 25.5862 210.411 25.5994 210.402L25.6499 210.352L51.8146 184.187H51.8122C52.1149 183.877 52.1581 183.397 51.9155 183.041L46.391 174.759L47.114 173.313L47.6304 172.292L48.817 169.922H65.6979V169.919C65.9381 169.919 66.1687 169.823 66.3392 169.653L75.061 160.931L83.7852 152.209C83.9558 152.039 84.0519 151.806 84.0495 151.565V70.1645C84.0495 69.6649 83.6435 69.2589 83.1439 69.2589L59.7912 69.2553ZM60.1748 71.0736H61.5415L45.9168 86.6983H44.5501L60.1748 71.0736ZM62.0555 71.0736L64.4455 71.0712L48.8208 86.6959H46.4284L62.0555 71.0736ZM64.9643 71.0736H67.359L51.7344 86.6983H49.3396L64.9643 71.0736ZM67.8707 71.0736H70.2654L54.6408 86.6983H52.2436L67.8707 71.0736ZM70.7795 71.0736H73.1742L57.5471 86.6983H55.1548L70.7795 71.0736ZM73.6883 71.0736H76.0806L60.456 86.6983H58.0636L73.6883 71.0736ZM76.5947 71.0736H78.9871L63.3624 86.6983H60.9676L76.5947 71.0736ZM79.5011 71.0736H80.8655L65.2432 86.6983H63.8765L79.5011 71.0736ZM82.1513 72.3586V73.7254L66.9995 88.8772L66.6584 87.8539L82.1513 72.3586ZM82.1513 74.237V76.6293L67.7251 91.058L67.127 89.2613L82.1513 74.237ZM82.1513 77.1578V79.5549L68.4556 93.2488L67.8575 91.4521L82.1513 77.1578ZM82.1513 80.0329V82.4277L69.1806 95.4009L68.5825 93.6042L82.1513 80.0329ZM82.1513 82.9537V85.3485L68.6259 98.8739L69.385 96.5968L69.3802 96.5944C69.4426 96.4071 69.4426 96.2053 69.3802 96.0203L69.3033 95.7922L82.1513 82.9537ZM82.1513 85.8265V88.2212L67.1797 103.193L68.3758 99.602L82.1513 85.8265ZM43.6215 88.4734H64.963L67.5691 96.287L64.7564 104.72L64.7492 104.718C64.6867 104.905 64.6867 105.107 64.7492 105.292L70.4683 122.447L67.658 130.88L67.6556 130.882C67.6076 131.031 67.598 131.192 67.6316 131.346L70.4755 145.575L67.7132 151.112C67.5643 151.403 67.5835 151.751 67.7637 152.022L73.1633 160.124L65.2341 168.055H48.9127L48.1825 164.416L51.7182 160.883V160.881C52.0185 160.573 52.0617 160.095 51.8191 159.737L46.8975 152.354L48.0072 149.024L48.1585 148.611L49.0136 146.046L49.016 146.044C49.0833 145.883 49.1001 145.705 49.0664 145.534L46.2057 131.235L49.0353 122.74H49.0377C49.1001 122.555 49.1001 122.353 49.0377 122.166L43.3186 105.011L46.1313 96.5779V96.5755C46.1937 96.3905 46.1937 96.1887 46.1313 96.0014L43.6215 88.4734ZM82.1513 88.7497V91.1444L67.002 106.294L66.5744 105.011L66.9179 103.983L82.1513 88.7497ZM82.1513 91.6224V94.0148L67.7251 108.441L67.127 106.647L82.1513 91.6224ZM82.1513 94.5408V96.9332L68.4556 110.631L67.8575 108.837L82.1513 94.5408ZM82.1513 97.4184V99.8107L69.1806 112.784L68.5825 110.99L82.1513 97.4184ZM82.1513 100.337V102.734L69.9086 114.977L69.3081 113.178L82.1513 100.337ZM82.1513 103.212V105.604L70.6342 117.121L70.0337 115.327L82.1513 103.212ZM82.1513 106.126V108.525L71.3666 119.312L70.7661 117.513L82.1513 106.126ZM82.1513 109.003V111.398L72.0872 121.462L71.4891 119.665L82.1513 109.003ZM19.4804 111.645H20.8472L5.2225 127.27H3.85336L19.4804 111.645ZM21.3612 111.645L23.7487 111.64L8.12158 127.265H5.72924L21.3612 111.645ZM24.2676 111.645H26.6623L11.0376 127.27H8.6429L24.2676 111.645ZM27.174 111.645H29.5687L13.9416 127.27H11.5516L27.174 111.645ZM30.0852 111.645H32.4775L16.8504 127.27H14.458L30.0852 111.645ZM32.9916 111.645H35.3863L19.7592 127.27H17.3644L32.9916 111.645ZM35.898 111.645H38.2927L22.6656 127.27L20.2612 127.265L35.898 111.645ZM38.8092 111.645H40.1711L24.5464 127.27H23.1796L38.8092 111.645ZM82.1537 111.924V114.311L71.5392 124.928L72.2959 122.654L72.2862 122.649C72.3463 122.462 72.3463 122.262 72.2862 122.075L72.2094 121.847L82.1537 111.924ZM41.9667 112.419L42.3078 113.442L25.8302 129.92V128.558L41.9667 112.419ZM42.4375 113.826L43.0356 115.623L25.8324 132.826V130.429L42.4375 113.826ZM82.1541 114.818V117.213L70.0866 129.281L71.2828 125.69L82.1541 114.818ZM43.1631 116.007L43.7612 117.804L25.8306 135.735V133.337L43.1631 116.007ZM82.1479 117.744V120.139L69.7392 132.547L69.4605 131.157L69.8232 130.069L82.1479 117.744ZM43.8843 118.198L44.3071 119.468L43.9564 120.523L25.8241 138.655V136.258L43.8843 118.198ZM82.1436 120.643V123.038L70.2176 134.964L69.8188 132.97L82.1436 120.643ZM43.6956 121.289L42.4994 124.883L25.8226 141.562V139.165L43.6956 121.289ZM82.1393 123.566V125.961L70.699 137.404L70.3003 135.405L82.1393 123.566ZM42.2376 125.658L41.4858 127.914L41.4786 127.911C41.4161 128.099 41.4161 128.301 41.4786 128.488L41.5554 128.716L25.8059 144.468V142.073L42.2376 125.658ZM82.1325 126.468V128.86L71.175 139.818L70.7762 137.824L82.1325 126.468ZM2.54566 129.1H23.9879V130.919H2.54566V129.1ZM41.683 129.1L42.2811 130.897L25.8035 147.377V144.98L41.683 129.1ZM82.119 129.355V131.754L71.6466 142.227L71.2479 140.226L82.119 129.355ZM2.53828 131.264H23.9806V133.808H2.53828V131.264ZM42.4037 131.264L43.0017 133.061L25.7986 150.264V147.87L42.4037 131.264ZM82.1141 132.254V134.649L72.1244 144.639L71.7281 142.64L82.1141 132.254ZM43.1231 133.438L43.7212 135.235L25.7906 153.166V150.771L43.1231 133.438ZM2.53213 134.161H23.9744V136.705H2.53213V134.161ZM82.1129 135.148V137.548L70.7562 148.905L72.207 146.006C72.2983 145.823 72.3247 145.619 72.2839 145.419L72.207 145.052L82.1129 135.148ZM43.8493 135.605L44.4474 137.404L25.7888 156.063V153.665L43.8493 135.605ZM2.5309 137.058H23.9732V139.602L2.5309 139.604V137.058ZM44.5779 137.786L45.176 139.58L25.7925 158.964V156.569L44.5779 137.786ZM82.1116 138.04V140.435L70.2053 152.339L69.5327 151.33L70.2436 149.908L82.1116 138.04ZM2.5309 139.95H23.9732V142.491H2.5309V139.95ZM45.3005 139.95L45.901 141.744L25.7893 161.858V159.461L45.3005 139.95ZM82.1085 140.935V143.327L71.3668 154.071L70.4084 152.635L82.1085 140.935ZM98.6556 141.012C95.5979 141.012 93.1623 141.807 91.1857 143.392C89.2065 144.973 87.6957 147.274 86.2161 150.235C85.3802 151.905 85.3802 153.639 85.839 155.171C86.3002 156.704 87.1865 158.066 88.1473 159.219C90.064 161.52 92.3387 163.026 92.3387 163.026L92.3435 163.023C92.4924 163.122 92.6678 163.175 92.8479 163.175C93.703 163.175 94.5341 162.843 95.3772 162.442C95.7591 164.465 96.7031 165.932 97.796 166.895C97.796 166.895 97.8464 166.922 97.8464 166.946C97.871 166.959 97.8899 166.977 97.9087 166.996C97.9283 167.015 97.9479 167.034 97.9737 167.047L98.0002 167.073C98.077 167.15 98.1515 167.2 98.2283 167.251C99.0186 167.842 99.8257 168.202 100.541 168.397H100.592C100.642 168.397 100.719 168.423 100.77 168.447H100.87C100.921 168.447 100.947 168.447 100.998 168.473C101.04 168.473 101.081 168.481 101.119 168.488C101.136 168.492 101.152 168.495 101.168 168.497C101.18 168.499 101.191 168.5 101.202 168.5C101.43 168.526 101.639 168.55 101.831 168.55C102.086 168.55 102.345 168.524 102.629 168.473C102.68 168.473 102.733 168.46 102.784 168.447C102.832 168.435 102.88 168.423 102.924 168.423C102.98 168.408 103.037 168.394 103.094 168.38C103.14 168.369 103.186 168.358 103.232 168.346C103.244 168.343 103.257 168.34 103.27 168.337C103.279 168.334 103.29 168.332 103.3 168.329C103.386 168.308 103.482 168.285 103.563 168.245C103.61 168.229 103.657 168.214 103.705 168.198C103.89 168.137 104.082 168.073 104.288 167.991C105.189 167.676 106.212 167.239 107.178 166.672C107.193 166.663 107.209 166.654 107.225 166.644C107.246 166.632 107.267 166.62 107.289 166.607C107.387 166.551 107.49 166.492 107.589 166.417C108.127 166.071 108.646 165.687 109.1 165.25C109.2 165.149 109.328 165.022 109.424 164.909C109.449 164.884 109.474 164.852 109.499 164.82C109.516 164.799 109.532 164.779 109.549 164.76C109.558 164.75 109.566 164.74 109.575 164.731C109.6 164.706 109.626 164.674 109.651 164.642C109.676 164.61 109.701 164.579 109.726 164.553C109.904 164.299 110.08 164.039 110.216 163.758C110.238 163.717 110.258 163.657 110.28 163.594C110.284 163.581 110.289 163.568 110.293 163.554C110.307 163.529 110.319 163.497 110.332 163.465C110.344 163.434 110.357 163.402 110.37 163.376C110.685 162.478 110.658 161.431 110.166 160.427C110.55 160.153 110.834 159.918 110.834 159.918C111.67 159.084 112.145 158.157 112.313 157.208C112.491 156.259 112.364 155.328 112.162 154.374C112.069 153.91 111.958 153.438 111.843 152.948C111.485 151.422 111.088 149.734 111.088 147.646C111.088 146.042 110.67 144.723 109.899 143.729C109.124 142.734 108.038 142.1 106.834 141.697C104.506 140.921 101.657 140.922 98.8449 140.923L98.5523 140.923L98.6556 141.012ZM46.0236 142.117L46.6241 143.911L25.7844 164.751V162.356L46.0236 142.117ZM98.6556 142.823C101.564 142.823 104.413 142.849 106.363 143.505C107.339 143.829 108.069 144.286 108.568 144.927C109.066 145.571 109.378 146.428 109.378 147.73C109.378 150.087 109.83 151.993 110.196 153.534C110.305 153.992 110.406 154.418 110.485 154.814C110.663 155.676 110.713 156.38 110.612 156.975C110.512 157.574 110.257 158.097 109.637 158.717C109.637 158.717 109.611 158.717 109.587 158.767C109.409 158.282 109.178 157.722 108.895 157.156C108.506 156.375 108.016 155.573 107.365 154.922C106.709 154.268 105.842 153.747 104.809 153.747L104.677 153.747C103.222 153.746 101.008 153.745 99.0206 154.537C96.9717 155.359 95.1798 157.259 95.1798 160.47V160.521C94.3176 160.946 93.5633 161.234 93.0805 161.316L93.0369 161.284C92.6072 160.976 91.0165 159.834 89.5328 158.047C88.673 157.019 87.9259 155.835 87.5704 154.643C87.2125 153.452 87.2125 152.28 87.8298 151.04C89.2566 148.189 90.6546 146.126 92.3095 144.802C93.9645 143.479 95.8909 142.823 98.6461 142.823L98.6556 142.823ZM2.52782 142.823H23.9726V145.366H2.53028L2.52782 142.823ZM82.1085 143.815V146.207L72.5271 155.789L71.5711 154.352L82.1085 143.815ZM46.7516 144.269L47.1768 145.539L46.8261 146.591L25.7872 167.63V165.236L46.7516 144.269ZM2.52905 145.722H23.9713V148.266H2.52905V145.722ZM82.1098 146.704V149.094L73.6912 157.513L72.7352 156.079L82.1098 146.704ZM46.5653 147.348L45.3715 150.937L25.7857 170.523V168.128L36.1755 157.738L46.5653 147.348ZM2.52782 148.612H23.9701V151.155L2.52782 151.158V148.612ZM82.1085 149.601V150.953L74.4364 158.626L73.896 157.814L82.1085 149.601ZM2.52782 151.516H23.9701V154.057H2.52782V151.516ZM45.116 151.693L44.3666 153.946H44.3642C44.3161 154.095 44.3065 154.256 44.3401 154.41L44.417 154.789L25.7897 173.419V171.022L45.116 151.693ZM46.1873 154.4L49.8719 159.93L47.7221 162.079L47.494 160.943L47.4171 160.518L47.016 158.517L46.9391 158.092L46.5404 156.096L46.4635 155.671L46.1873 154.4ZM2.52917 154.4H23.969V156.944H2.52672L2.52917 154.4ZM44.5024 155.203L44.9036 157.199L25.7912 176.309V173.914L44.5024 155.203ZM104.813 155.488C105.238 155.488 105.642 155.693 106.082 156.132C106.519 156.572 106.937 157.223 107.273 157.893C107.77 158.894 108.092 159.908 108.222 160.367C108.272 160.518 108.299 160.624 108.299 160.624V160.648V160.698C108.306 160.725 108.313 160.751 108.323 160.775C108.332 160.79 108.341 160.804 108.35 160.818C108.358 160.83 108.365 160.841 108.373 160.852V160.876C108.45 160.977 108.5 161.08 108.551 161.188C108.556 161.198 108.561 161.207 108.565 161.217C108.573 161.232 108.581 161.248 108.589 161.264C108.602 161.289 108.614 161.314 108.628 161.34C108.628 161.365 108.64 161.39 108.653 161.415C108.666 161.44 108.678 161.466 108.678 161.491C108.906 162.048 108.829 162.478 108.577 162.961C108.265 163.607 107.532 164.304 106.615 164.887C105.695 165.471 104.614 165.949 103.692 166.273C102.767 166.593 101.893 166.744 101.83 166.744C101.679 166.744 101.431 166.694 101.119 166.617H101.069C101.03 166.617 100.999 166.604 100.967 166.591C100.935 166.579 100.903 166.566 100.865 166.566C100.83 166.566 100.795 166.554 100.752 166.538C100.732 166.531 100.711 166.523 100.687 166.516C100.647 166.516 100.59 166.484 100.543 166.458C100.531 166.451 100.519 166.444 100.509 166.439C100.479 166.429 100.45 166.415 100.419 166.4C100.37 166.377 100.318 166.353 100.255 166.338C100.232 166.338 100.211 166.318 100.189 166.298L100.178 166.288C100.162 166.288 100.147 166.278 100.127 166.266C100.113 166.257 100.097 166.247 100.077 166.237C100.067 166.237 100.053 166.233 100.038 166.227C100.015 166.217 99.9906 166.201 99.9759 166.187C99.9495 166.187 99.899 166.16 99.875 166.136C99.844 166.136 99.8221 166.117 99.7981 166.096C99.7831 166.083 99.7672 166.07 99.7477 166.059C99.7213 166.059 99.6973 166.033 99.6708 166.009L99.6497 165.998C99.6067 165.976 99.5662 165.955 99.5435 165.932C99.5208 165.932 99.4998 165.913 99.4776 165.892L99.4667 165.882C99.4426 165.869 99.4186 165.851 99.3946 165.833C99.3835 165.825 99.3723 165.816 99.3611 165.808C99.3459 165.798 99.3306 165.788 99.3154 165.781C99.3154 165.781 99.2889 165.781 99.2649 165.754C99.2453 165.735 99.2217 165.719 99.1972 165.702C99.1587 165.676 99.118 165.649 99.0872 165.603C98.883 165.452 98.6956 165.262 98.5059 165.065C97.7012 164.193 97.0503 162.91 96.9398 160.938V160.403C96.9398 157.797 98.0543 156.793 99.6396 156.161C101.225 155.524 103.3 155.498 104.753 155.498L104.813 155.488ZM2.5304 157.309H23.9727V159.853H2.5304V157.309ZM44.9894 157.621L45.3882 159.617L25.7931 179.212V176.818L44.9894 157.621ZM79.1479 159.319C78.4418 159.319 77.529 159.584 76.6379 160.348C75.7468 161.109 75.007 162.428 75.007 164.268C75.007 166.187 76.1527 167.443 77.3969 167.938C78.5807 168.412 79.8344 168.41 80.646 168.409L80.7621 168.409C81.4682 168.409 82.0568 168.048 82.4651 167.635C82.8734 167.227 83.164 166.749 83.3922 166.29C83.7429 165.586 83.9495 164.911 84.0288 164.63C84.4923 163.84 84.5068 162.91 84.1801 162.219C83.8222 161.484 83.2121 160.979 82.5732 160.573C81.9366 160.17 81.2569 159.87 80.6564 159.661L80.6537 159.66C80.0595 159.456 79.6612 159.319 79.16 159.319H79.1479ZM45.4721 160.042L45.8709 162.041L25.7931 182.121V179.724L45.4721 160.042ZM2.52733 160.194H23.9696V162.737H2.52733V160.194ZM79.1381 161.121C79.0973 161.121 79.1562 161.134 79.2731 161.158C79.4455 161.195 79.7444 161.259 80.0364 161.349C80.5264 161.527 81.1077 161.777 81.5784 162.079C82.0516 162.38 82.4023 162.735 82.5248 162.985C82.6521 163.239 82.6762 163.343 82.424 163.737C82.3639 163.823 82.3231 163.919 82.2966 164.023C82.2966 164.023 82.1189 164.753 81.761 165.452C81.5833 165.8 81.3719 166.132 81.1773 166.326C80.9732 166.53 80.8603 166.554 80.757 166.554C79.9523 166.554 78.8426 166.528 78.0668 166.213C77.2886 165.903 76.8202 165.545 76.8202 164.232C76.8202 162.843 77.2934 162.139 77.8146 161.693C78.3382 161.246 79.0396 161.102 79.1405 161.102L79.1381 161.121ZM89.4279 162.075H89.2765C88.8658 162.125 88.4815 162.336 88.1909 162.627C88.137 162.681 88.0828 162.735 88.0285 162.789C87.3485 163.466 86.6426 164.169 86.2044 165.041C85.9762 165.514 85.8129 166.064 85.8874 166.65C85.9642 167.236 86.2669 167.798 86.7353 168.269C87.6793 169.213 88.9523 169.626 90.1028 169.626C90.6769 169.626 91.239 169.525 91.7361 169.22C92.2358 168.913 92.6465 168.296 92.6465 167.63V166.177L92.6489 166.175C92.6489 166.076 92.6297 165.98 92.5985 165.886C92.5985 165.886 92.2238 164.741 91.6064 163.708C91.299 163.191 90.9483 162.677 90.3599 162.327C90.1052 162.175 89.7786 162.058 89.4255 162.062L89.4279 162.075ZM45.9475 162.452L46.3462 164.448L25.7832 185.013V182.616L45.9475 162.452ZM2.52487 163.1H23.9671V165.644L2.52487 165.646V163.1ZM89.4537 163.934C89.5546 164.011 89.8164 164.28 90.0446 164.652C90.4623 165.35 90.7505 166.158 90.8155 166.34L90.8252 166.367V167.635H90.7748C90.6979 167.686 90.4265 167.786 90.0926 167.786C89.4273 167.786 88.5217 167.474 88.0077 166.96C87.7531 166.706 87.6954 166.542 87.6762 166.401C87.6762 166.249 87.6762 166.083 87.8275 165.829C88.0822 165.322 88.7403 164.621 89.4584 163.902L89.4537 163.934ZM46.4345 164.866L46.8332 166.862L25.7851 187.91V185.515L46.4345 164.866ZM2.52425 165.997L23.9665 165.999V168.543H2.52425V165.997ZM46.9196 167.282L47.1814 168.593L46.36 170.239L25.7823 190.814V188.419L46.9196 167.282ZM2.52364 168.901H23.9659V171.442L2.52364 171.445V168.901ZM45.8429 171.26L44.409 174.128C44.2649 174.418 44.2841 174.764 44.4618 175.036L25.7792 193.726V191.331L45.8429 171.26ZM2.52302 171.798L23.9653 171.8V174.344H2.52302V171.798ZM2.52302 174.704H23.9653V177.245L2.52302 177.248V174.704ZM44.6678 175.331L45.6262 176.767L25.7815 196.612V194.217L44.6678 175.331ZM62.1852 176.772C59.3365 176.772 56.8817 178.533 55.1187 180.214C53.3533 181.898 52.2292 183.584 52.2292 183.584V183.587C52.1283 183.735 52.0755 183.911 52.0755 184.091C52.0755 185.121 52.5126 186.094 53.0339 187.134C53.2996 187.667 53.5949 188.212 53.8911 188.758C54.1733 189.278 54.4563 189.8 54.7152 190.314C55.2413 191.366 55.6496 192.392 55.7625 193.209C55.7889 193.437 55.8129 193.651 55.7889 193.845C55.162 192.959 54.4054 192.169 53.447 191.703C52.8825 191.429 52.2388 191.299 51.5734 191.35C50.9561 191.4 50.3172 191.604 49.7071 191.972C49.6679 191.972 49.6294 191.985 49.5813 192.001C49.535 192.017 49.4799 192.036 49.4068 192.049H49.33H49.2795C48.7367 192.2 47.7927 192.531 46.7743 193.041C46.1906 193.334 45.5925 193.682 45.0569 194.114C45.0184 194.14 44.9806 194.171 44.9428 194.203C44.905 194.235 44.8671 194.267 44.8287 194.292C44.8287 194.292 44.8023 194.292 44.8023 194.318C44.7638 194.357 44.7194 194.395 44.675 194.433C44.6305 194.47 44.5861 194.508 44.5477 194.547C44.4708 194.624 44.3963 194.698 44.3195 194.801C44.2762 194.858 44.2336 194.907 44.1909 194.957C44.1579 194.995 44.1248 195.033 44.0913 195.075C43.8871 195.361 43.6998 195.673 43.5749 196.009C43.5749 196.032 43.5648 196.055 43.5536 196.08C43.5398 196.11 43.5244 196.145 43.5244 196.187C43.5244 196.238 43.498 196.314 43.474 196.365C43.474 196.415 43.4476 196.492 43.4235 196.543C43.4235 196.593 43.4235 196.67 43.3971 196.72V196.898V197.102V198.33C43.3971 198.779 43.4235 199.266 43.474 199.771C43.474 200.021 43.5226 200.271 43.5721 200.525L43.5749 200.54C43.5749 200.626 43.5983 200.716 43.6215 200.806C43.6324 200.848 43.6433 200.89 43.6517 200.931V201.032C43.6849 201.182 43.718 201.334 43.7511 201.486L43.7526 201.493L43.8031 201.724C43.8154 201.783 43.833 201.844 43.8507 201.906C43.8708 201.976 43.8911 202.046 43.9039 202.115C43.9295 202.18 43.9489 202.246 43.9684 202.313C43.9873 202.378 44.0064 202.443 44.0312 202.507C44.0817 202.634 44.1321 202.764 44.1826 202.894C45.0016 204.942 46.9016 206.734 50.113 206.734H50.5982H50.7495C50.8768 206.734 51.0185 206.734 51.1482 206.708H51.3524C51.4533 206.708 51.5566 206.708 51.6454 206.681C51.7343 206.681 51.8251 206.661 51.9193 206.64L51.9577 206.631H52.085C54.1723 206.244 55.6687 205.255 56.6367 204.128C56.8409 203.9 57.0186 203.653 57.1771 203.415C58.4502 203.888 59.7857 203.749 61.1188 203.465C61.4667 203.391 61.8218 203.309 62.1867 203.225C63.2073 202.99 64.3045 202.737 65.536 202.588V202.639C65.536 203.259 65.7402 204.034 66.2974 204.815C66.3743 204.916 66.4752 205.043 66.5641 205.154C67.3255 206.042 68.6417 206.782 70.4841 206.782C72.4032 206.782 73.6571 205.637 74.1518 204.395C74.6258 203.211 74.6239 201.957 74.6227 201.144L74.6226 201.027C74.6226 200.58 74.4713 200.182 74.2671 199.843V199.817C74.2617 199.806 74.2551 199.796 74.248 199.785C74.2388 199.772 74.2287 199.758 74.2185 199.744C74.2066 199.729 74.1948 199.713 74.1844 199.697C74.1775 199.686 74.1713 199.676 74.1662 199.665C74.159 199.658 74.152 199.649 74.1451 199.639C74.1398 199.632 74.1346 199.624 74.1294 199.616C74.1163 199.597 74.1031 199.577 74.0894 199.564C74.0894 199.564 74.0389 199.514 74.0389 199.487L73.8876 199.336L73.8108 199.259C73.6594 199.108 73.4865 198.983 73.3136 198.865C74.3639 196.474 74.3613 193.405 74.3587 190.364L74.3584 189.911C74.3584 186.853 73.5609 184.418 71.9756 182.441C70.3952 180.462 68.0965 178.951 65.1324 177.472C64.1909 177.001 63.2276 176.787 62.2957 176.782L62.1852 176.772ZM45.83 177.075L46.7884 178.511L25.7809 199.521V197.124L45.83 177.075ZM2.52241 177.601L23.9647 177.603V180.147H2.52241V177.601ZM62.1704 178.586C62.8406 178.586 63.5107 178.737 64.2073 179.083C67.0584 180.51 69.1217 181.908 70.4455 183.562C71.7693 185.217 72.4248 187.144 72.4248 189.899C72.4248 193.031 72.3479 196.084 71.5769 198.039C71.3479 197.953 71.1464 197.89 70.9902 197.841L70.9883 197.841C70.9142 197.817 70.8503 197.798 70.7986 197.78C70.4239 197.552 70.0228 197.443 69.6265 197.417C69.1821 197.391 68.7474 197.467 68.3775 197.645C67.6449 198.001 67.1429 198.611 66.7346 199.247C66.4343 199.721 66.1941 200.218 66.002 200.689C64.3348 200.824 62.924 201.157 61.732 201.439C61.3629 201.526 61.0147 201.608 60.6864 201.678C59.5335 201.933 58.7 202.024 57.941 201.779C58.1692 201.138 58.2533 200.549 58.2533 200.071C58.2533 199.406 58.0491 198.642 57.6816 197.614C57.4774 197.057 57.2444 196.452 56.9514 195.844C57.5447 194.977 57.6936 193.932 57.5615 192.954C57.4102 191.775 56.901 190.617 56.3389 189.491C56.051 188.917 55.7437 188.351 55.4483 187.807C55.1645 187.285 54.8917 186.782 54.6575 186.313C54.2348 185.475 54.0018 184.773 53.9417 184.314L53.9813 184.26C54.2726 183.857 55.0563 182.773 56.3677 181.523C57.9746 179.996 60.1196 178.569 62.1684 178.586L62.1704 178.586ZM46.9971 178.814L47.9531 180.25L25.7828 202.418V200.026L46.9971 178.814ZM2.52118 180.51H23.9635V183.053L2.52118 183.056V180.51ZM48.1537 180.56L49.1121 181.999L25.7796 205.331V202.936L48.1537 180.56ZM49.3187 182.306L49.8663 183.125L25.7818 207.21V205.843L48.2571 183.37L49.3187 182.306ZM2.51841 183.409L23.9607 183.411V185.955H2.51841V183.409ZM2.51841 186.315L23.9607 186.317V188.861H2.51841V186.315ZM2.51841 189.207L23.9607 189.209V191.753H2.51841V189.207ZM2.51841 192.116L23.9607 192.118V194.662H2.51841V192.116ZM51.7131 193.079H51.8404C52.1214 193.079 52.3881 193.156 52.6691 193.307L52.6932 193.32C52.7362 193.342 52.7822 193.366 52.8469 193.408C52.8626 193.408 52.8774 193.417 52.8975 193.43C52.9077 193.436 52.9191 193.444 52.9327 193.451C52.9374 193.453 52.9424 193.456 52.9477 193.459C53.0246 193.509 53.0991 193.559 53.1519 193.61C53.195 193.632 53.2382 193.673 53.2663 193.699L53.2792 193.711C53.2951 193.727 53.3137 193.743 53.3332 193.759C53.3756 193.796 53.4224 193.836 53.4569 193.888L53.5074 193.939C54.0646 194.489 54.6051 195.267 55.0446 196.108C55.4025 196.797 55.7052 197.513 55.9262 198.154C56.248 199.077 56.3994 199.951 56.3994 200.013C56.3994 200.439 56.0991 201.786 55.1647 202.877C54.4105 203.758 53.2648 204.558 51.4273 204.827C51.1583 204.877 50.8749 204.904 50.5746 204.904H50.4738H50.0366H49.5682C49.4169 204.904 49.2704 204.904 49.1334 204.877C47.1854 204.649 46.3472 203.616 45.7899 202.228C45.1606 200.645 45.1294 198.57 45.1294 197.117C45.1294 196.691 45.3335 196.288 45.7731 195.851C46.2127 195.414 46.8636 194.993 47.5362 194.659C48.8813 193.987 50.2552 193.639 50.2552 193.639H50.26C50.3609 193.615 50.4546 193.571 50.5411 193.514C50.9806 193.221 51.3409 193.086 51.6676 193.062L51.7131 193.079ZM2.51473 195.005L23.957 195.008V197.549H2.51473V195.005ZM2.51473 197.888L23.957 197.89V200.434H2.51473V197.888ZM69.4838 199.118C69.5847 199.118 69.712 199.168 69.9137 199.322V199.324C70.0026 199.382 70.0987 199.425 70.1996 199.451C70.1996 199.451 70.8985 199.629 71.5855 199.968C71.9386 200.146 72.2749 200.362 72.4766 200.561C72.6808 200.765 72.7312 200.881 72.7312 200.986C72.7312 201.791 72.7048 202.901 72.3926 203.676C72.1644 204.275 71.8833 204.685 71.1819 204.846C70.9778 204.897 70.716 204.923 70.4109 204.923C69.0202 204.923 68.3164 204.452 67.8696 203.929C67.4301 203.415 67.286 202.732 67.2836 202.612C67.2836 202.612 67.3604 202.144 67.5117 201.707C67.6895 201.217 67.9393 200.64 68.242 200.165C68.5446 199.692 68.8977 199.341 69.1475 199.218C69.1713 199.209 69.1941 199.2 69.2162 199.19C69.3122 199.151 69.3932 199.117 69.4694 199.117L69.4838 199.118ZM2.50857 200.777L23.9533 200.78V203.321H2.51103L2.50857 200.777ZM61.6979 203.446C61.5994 203.448 61.5033 203.465 61.4097 203.496C61.4097 203.496 60.2615 203.871 59.2287 204.488C58.7122 204.798 58.2006 205.146 57.8499 205.73C57.6722 206.026 57.5449 206.412 57.5905 206.823C57.641 207.236 57.8571 207.618 58.1454 207.909C58.1934 207.957 58.2414 208.005 58.2896 208.053L58.3146 208.078C58.9895 208.756 59.6908 209.461 60.5617 209.897C61.0325 210.126 61.5826 210.287 62.1711 210.212C62.7547 210.135 63.3192 209.833 63.7876 209.364C64.7316 208.423 65.1447 207.147 65.1447 205.997C65.1447 205.423 65.0438 204.861 64.7387 204.363C64.4313 203.864 63.814 203.453 63.1487 203.453L61.6979 203.446ZM2.50735 203.674H23.9496V206.218L2.50735 206.22V203.674ZM63.1663 205.245V205.295C63.2167 205.396 63.2936 205.644 63.2936 205.978C63.2936 206.643 62.9837 207.548 62.4697 208.062C62.2127 208.317 62.0494 208.375 61.9101 208.394C61.7588 208.394 61.593 208.394 61.3384 208.243C60.8316 207.988 60.1278 207.33 59.4096 206.612C59.4865 206.511 59.7555 206.247 60.1278 206.021C60.8525 205.585 61.6986 205.29 61.8343 205.243L61.8429 205.24H63.1087L63.1663 205.245ZM2.49997 206.564L23.9447 206.566V208.384L2.50242 208.382L2.49997 206.564Z" fill="#383680"/>
<path d="M335.215 85.8265V88.2212L278.888 144.548V142.153L335.215 85.8265Z" fill="#383680"/>
<path d="M335.217 114.792V117.184L278.891 173.512V171.245L335.217 114.792Z" fill="#383680"/>
<path d="M335.215 94.5408V96.9356L278.888 153.262V150.867L335.215 94.5408Z" fill="#383680"/>
<path d="M335.176 135.122V137.517L278.85 193.843V191.448L335.176 135.122Z" fill="#383680"/>
<path fill-rule="evenodd" clip-rule="evenodd" d="M312.854 69.2553V69.2529C312.612 69.2529 312.381 69.349 312.211 69.5195L254.066 127.664V127.691C254.049 127.705 254.032 127.722 254.016 127.741V127.765C254.01 127.774 254.006 127.783 254.002 127.793C253.998 127.8 253.995 127.808 253.992 127.815C253.982 127.832 253.972 127.849 253.965 127.868V127.892C253.961 127.901 253.956 127.909 253.952 127.917L253.947 127.927C253.945 127.932 253.942 127.937 253.939 127.943V127.969V128.02V128.046V128.096V128.121V128.197V128.274V209.675C253.939 209.915 254.035 210.146 254.205 210.319C254.376 210.489 254.607 210.585 254.847 210.585H278.102C278.345 210.585 278.576 210.489 278.746 210.319L336.891 152.174C337.059 152.004 337.155 151.773 337.155 151.533V70.132C337.155 69.7862 336.958 69.4691 336.646 69.3178C336.622 69.3082 336.595 69.2986 336.569 69.2914H336.494H336.468H336.418H336.367H336.317H336.264L312.854 69.2553ZM314.596 71.0736H313.23L256.903 127.397H258.272L314.596 71.0736ZM317.505 71.0736H315.113L258.786 127.397H261.181L317.505 71.0736ZM320.416 71.0736H318.024L261.7 127.397H264.09L320.416 71.0736ZM323.32 71.0736H320.928L264.604 127.397H266.994L323.32 71.0736ZM326.229 71.0736H323.837L267.51 127.397H269.908L326.229 71.0736ZM329.14 71.0736H326.743L270.419 127.397H272.814L329.14 71.0736ZM332.047 71.0736H329.652L273.328 127.397H275.72L332.047 71.0736ZM333.923 71.0736H332.558L276.234 127.397H277.599L333.923 71.0736ZM335.215 73.723V72.3586L278.888 128.685V130.049L335.215 73.723ZM335.215 76.6293V74.237L278.888 130.563V132.956L335.215 76.6293ZM335.215 79.5525V77.1578L278.888 133.482V135.876L335.215 79.5525ZM335.215 82.4253V80.0329L278.888 136.359V138.752L335.215 82.4253ZM335.215 85.3485V82.9537L278.888 139.28V141.677L335.215 85.3485ZM335.215 88.2212V85.8265L278.888 142.153V144.548L335.215 88.2212ZM335.215 91.1396V88.7497L278.888 145.075V147.468L335.215 91.1396ZM335.215 94.0172V91.6224L278.888 147.949V150.344L335.215 94.0172ZM335.215 96.9356V94.5408L278.888 150.867V153.262L335.215 96.9356ZM335.215 99.8107V97.4184L278.888 153.742V156.137L335.215 99.8107ZM335.215 102.732V100.337L278.888 156.663V159.058L335.215 102.732ZM335.215 105.604V103.212L278.888 159.538V161.931L335.215 105.604ZM335.215 108.482V106.126L278.888 162.454V164.808L335.215 108.482ZM335.215 111.395V109.003L278.888 165.327V167.722L335.215 111.395ZM335.217 114.266V111.873L278.891 168.199V170.594L335.217 114.266ZM335.217 117.184V114.792L278.891 171.245V173.512L335.217 117.184ZM335.211 120.086V117.693L278.885 174.019V176.414L335.211 120.086ZM335.207 123.009V120.617L278.881 176.941V179.335L335.207 123.009ZM335.203 125.913V123.516L278.876 179.842V182.239L335.203 125.913ZM335.196 128.834V126.441L278.869 182.768V185.16L335.196 128.834ZM277.041 129.1H255.602V130.919H277.041V129.1ZM335.182 131.726V129.328L278.856 185.659V188.054L335.182 131.726ZM277.036 131.264H255.597V133.806H277.036V131.264ZM335.177 134.62V132.228L278.851 188.552V190.946L335.177 134.62ZM277.035 134.161H255.595V136.703H277.035V134.161ZM335.176 137.517V135.122L278.85 191.448V193.843L335.176 137.517ZM277.034 137.058H255.594V139.599H277.034V137.058ZM335.175 140.409V138.014L278.849 194.34V196.733L335.175 140.409ZM277.031 139.95H255.591V142.494H277.031V139.95ZM335.172 143.303V140.908L278.845 197.234V199.631L335.172 143.303ZM277.031 142.823H255.591V145.364H277.031V142.823ZM335.172 146.178V143.788L278.845 200.112V202.505L335.172 146.178ZM277.032 145.722H255.592V148.261H277.032V145.722ZM335.173 149.073V146.678L278.847 203.004V205.401L335.173 149.073ZM277.031 148.612H255.591V151.153H277.031V148.612ZM335.172 150.968V149.575L278.845 205.901V207.294L335.172 150.968ZM277.031 151.516H255.591V154.057H277.031V151.516ZM277.032 154.4H255.592V156.942H277.032V154.4ZM277.033 157.309H255.594V159.853H277.033V157.309ZM277.03 160.194H255.591V162.735H277.03V160.194ZM277.028 163.1H255.588V165.603H277.028V163.1ZM277.027 165.997H255.588V168.538H277.027V165.997ZM277.027 168.872H255.587V171.418L277.027 171.413V168.872ZM277.026 171.798H255.586V174.341H277.026V171.798ZM277.026 174.678H255.586V177.219H277.026V174.678ZM277.025 177.601H255.586V180.142H277.025V177.601ZM277.024 180.483H255.584V183.024H277.024V180.483ZM277.022 183.409H255.582V185.95H277.022V183.409ZM277.022 186.289H255.582V188.832H277.022V186.289ZM277.022 189.207H255.582V191.751H277.022V189.207ZM277.022 192.089H255.582V194.633H277.022V192.089ZM277.018 195.005H255.578V197.547H277.018V195.005ZM277.018 197.888H255.578V200.431H277.018V197.888ZM277.012 200.777H255.572V203.319H277.012V200.777ZM277.01 203.674H255.571V206.215H277.01V203.674ZM277.003 206.564H255.563V208.403H277.003V206.564Z" fill="#383680"/>
<path d="M255.592 154.4H277.032V156.942H255.592V154.4Z" fill="#383680"/>
<path d="M255.586 171.798H277.026V174.341H255.586V171.798Z" fill="#383680"/>
<path d="M255.582 186.289H277.022V188.832H255.582V186.289Z" fill="#383680"/>
<path d="M255.595 134.161H277.035V136.703H255.595V134.161Z" fill="#383680"/>
<path d="M218.613 0.0143883C219.072 -0.00242558 219.533 -0.00242558 219.994 0.0143883L219.994 0C223.268 0.0744648 226.474 0.975176 229.311 2.61094C233.805 5.2046 237.086 9.47793 238.429 14.4884C239.771 19.5017 239.07 24.8412 236.473 29.3353C233.88 33.8268 229.609 37.1054 224.596 38.4481C219.585 39.7908 214.246 39.0871 209.754 36.4929C205.26 33.8992 201.984 29.6259 200.641 24.6154C199.299 19.6046 200.002 14.2652 202.596 9.77352C205.926 4.00646 211.962 0.329047 218.613 0.0143883Z" fill="#383680"/>
<path d="M152.207 24.7113C153.972 24.022 156.023 23.7361 158.233 23.7361L158.238 23.7313C170.661 23.7602 187.994 33.063 190.773 34.5978C195.37 32.8204 200.695 33.0654 205.316 35.7316C212.032 39.6135 215.669 47.7388 213.56 54.6927L218.568 71.439C232.879 75.5244 242.926 68.5756 255.801 64.1776C261.46 73.4467 249.248 80.0208 240.46 82.3603C240.46 82.3603 221.222 90.7648 213.005 86.5061C208.422 84.1326 204.692 78.2886 201.822 71.9692L188.832 89.6188C237.748 112.097 215.524 129.126 185.868 142.421C177.327 146.25 166.926 151.858 158.822 147.182C150.72 142.505 196.297 119.997 188.128 115.423C183.763 112.976 178.292 110.862 173.008 108.705C161.473 143.118 148.71 160.009 135.323 169.328C128.192 174.291 117.647 186.382 111.565 182.868C105.488 179.359 111.554 168.762 117.748 162.663C137.358 143.339 141.374 120.05 151.162 95.7372C151.883 93.9453 152.915 92.4225 154.148 91.1686C154.34 90.5177 154.606 89.8379 154.974 89.1366L178.953 47.6091L159.85 38.8393C147.328 46.8835 145.916 59.0186 140.728 71.5952C130.029 69.729 133.15 56.2153 137.204 48.0702C137.204 48.0702 143.586 28.0813 152.207 24.7113Z" fill="#383680"/>
</svg>
