<svg width="104" height="103" viewBox="0 0 104 103" fill="none" xmlns="http://www.w3.org/2000/svg">
<rect x="0.333252" width="103" height="103" rx="51.5" fill="#383680"/>
<path d="M54.3819 35.0587L55.1859 35.437L50.0067 46.4472L50.6867 46.7667C49.5226 49.1072 43.2323 61.8494 41.8012 66.7613C41.7882 66.8061 40.6111 70.9129 41.6187 72.1398L40.9009 73.6658L41.6106 74L42.3225 72.4855C42.3277 72.4855 42.3323 72.4869 42.3372 72.4869C43.8842 72.4869 46.3308 68.9396 46.3554 68.9039C49.2263 64.6696 55.031 51.6975 56.0912 49.3102L56.7712 49.6297L64.4155 33.3794L64.4201 33.304C64.4246 33.2266 64.502 31.3889 61.8154 30.1246C61.0146 29.748 60.2523 29.557 59.5492 29.557C58.35 29.557 57.7313 30.1214 57.7061 30.1456L57.6511 30.1978L56.8794 31.8372L56.0747 31.4589L56.7546 30.0139L54.5991 29L47.0466 45.0548L49.2021 46.0687L54.3819 35.0587ZM45.7062 68.4633C44.7901 69.8155 43.0656 71.702 42.3382 71.702C42.3078 71.702 42.2839 71.6978 42.2643 71.6883C41.8008 71.4701 41.9501 69.0508 42.554 66.9804C43.9504 62.1922 50.2726 49.3669 51.3971 47.1006L53.3894 48.0377L55.3817 48.9752C54.3542 51.2852 48.5059 64.335 45.7059 68.463L45.7062 68.4633ZM58.2904 30.6822C58.4284 30.5837 58.84 30.3417 59.5494 30.3417C60.1359 30.3417 60.7857 30.5074 61.4814 30.8346C63.4188 31.7457 63.6163 32.913 63.6352 33.1953L56.3959 48.5856L51.0514 46.0718L58.2904 30.6822ZM56.5451 32.5466L55.5197 34.7266L54.716 34.3483L55.1648 33.393L55.7414 32.1683L56.5451 32.5466ZM48.0915 44.6787L54.9757 30.0436L55.7106 30.3893L55.3649 31.1243L54.5833 32.7858L48.8265 45.0238L48.0915 44.6787Z" fill="white" stroke="white" stroke-width="0.3"/>
<path d="M41.7055 35.0688H42.4902V32.6099H44.9498V31.8252H42.4902V29.3652H41.7055V31.8252H39.2458V32.6099H41.7055V35.0688Z" fill="white" stroke="white" stroke-width="0.3"/>
<path d="M44.2577 43.4023L42.0973 45.5635L39.9361 43.4023L39.3809 43.9572L41.542 46.118L39.3816 48.2785L39.9365 48.8337L42.0973 46.6729L44.2577 48.8337L44.8123 48.2785L42.6518 46.118L44.8123 43.9572L44.2577 43.4023Z" fill="white" stroke="white" stroke-width="0.3"/>
<path d="M39.2454 39.0898H44.9493V39.8746H39.2454V39.0898Z" fill="white" stroke="white" stroke-width="0.3"/>
<path d="M39.2454 52.1338H44.9493V52.9185H39.2454V52.1338Z" fill="white" stroke="white" stroke-width="0.3"/>
<path d="M39.2454 53.8057H44.9493V54.5904H39.2454V53.8057Z" fill="white" stroke="white" stroke-width="0.3"/>
</svg>
