<svg width="103" height="103" viewBox="0 0 103 103" fill="none" xmlns="http://www.w3.org/2000/svg">
<rect width="103" height="103" rx="51.5" fill="#383680"/>
<path d="M54.5764 43.1019C54.3937 43.4606 55.0177 43.9371 55.294 44.1251C56.7738 45.132 56.5169 46.0575 56.3379 46.4088C55.9765 47.1181 55.0423 47.3551 54.1193 47.0189L54.0878 47.0814C53.9641 47.3243 53.6666 47.4215 53.4231 47.2974C53.1796 47.1733 53.0832 46.8759 53.2071 46.6327L53.2681 46.5129C52.647 45.9624 52.4025 45.1919 52.7216 44.5657C52.8453 44.3228 53.1428 44.2257 53.3863 44.3497C53.6298 44.4738 53.7262 44.7713 53.6023 45.0145C53.4762 45.262 53.7323 45.7402 54.2635 46.0109C54.7945 46.2814 55.3321 46.2072 55.458 45.96C55.6054 45.6707 55.1832 45.2444 54.7385 44.942C53.3117 43.9717 53.4733 43.0913 53.6965 42.6531C54.0156 42.0269 54.7826 41.7718 55.5931 41.9507L55.6745 41.7903C55.7982 41.5474 56.0957 41.4502 56.3392 41.5743C56.5827 41.6983 56.6791 41.9958 56.5552 42.239L56.5028 42.3419C57.3169 42.8909 57.6744 43.7867 57.3132 44.4954C57.1895 44.7383 56.892 44.8355 56.6485 44.7114C56.405 44.5873 56.3086 44.2899 56.4325 44.0467C56.5586 43.7992 56.3027 43.3207 55.7718 43.0501C55.2402 42.78 54.7026 42.8542 54.5765 43.1018L54.5764 43.1019ZM57.444 62.8395L54.625 65.9504C54.4723 66.1194 54.2282 66.1575 54.035 66.0591C53.9966 66.0395 53.9601 66.0147 53.9268 65.9846C53.8043 65.8735 53.7579 65.7156 53.7749 65.563C53.7768 65.5318 53.7725 65.4994 53.7806 65.4684C54.3052 63.4845 54.2296 61.4252 53.599 59.4736C53.412 59.6128 53.2147 59.7412 53.0254 59.8683C53.0475 60.3724 53.0198 60.8654 52.9608 61.3548C52.9603 61.3557 52.95 61.5717 52.8084 61.7092C52.7221 61.7929 52.5723 61.8257 52.452 61.812C52.1537 61.7779 51.836 61.7228 51.5116 61.6565C51.3278 62.516 51.0305 63.3667 50.6106 64.1909C48.8604 67.6259 45.355 69.3593 43.2607 70.3957C42.7359 70.6551 42.2828 70.8795 42.0548 71.0407L41.3162 71.5633L41.2756 70.6592C41.2635 70.3899 41.1845 69.9362 41.0921 69.4099C40.7112 67.2392 40.0041 63.1969 41.788 59.6959C42.2012 58.8849 42.7197 58.1588 43.3183 57.5161C43.0615 57.289 42.8193 57.0615 42.6075 56.8402C42.5194 56.7466 42.4683 56.6018 42.4745 56.4742C42.4803 56.3581 42.5368 56.2221 42.6236 56.1414C42.9913 55.7992 43.3839 55.5002 43.789 55.2289C43.7767 54.9844 43.7712 54.7363 43.7728 54.485C41.8358 55.1246 40.1441 56.2798 38.8546 57.8623C38.8323 57.8893 38.8043 57.9079 38.7782 57.9286C38.6651 58.0284 38.514 58.0829 38.3547 58.0493C38.3107 58.0401 38.2695 58.0253 38.2311 58.0057C38.0373 57.907 37.9252 57.6874 37.9722 57.4646L38.8283 53.3743C38.8258 53.3692 38.8265 53.3634 38.8323 53.3559C40.0573 50.4794 43.4657 46.7035 46.2465 45.2529C46.7054 44.3294 47.2207 43.4069 47.7961 42.497C52.1294 35.6475 58.0419 32.2909 60.8516 31.3885C61.4554 31.1949 62.1075 31.5268 62.3056 32.1294C62.7377 33.4442 64.7042 40.4459 60.9888 49.2309C60.5708 50.219 60.1184 51.1609 59.6387 52.056C60.1082 55.1572 59.0552 60.1512 57.4437 62.8401L57.444 62.8395ZM55.8578 35.229L62.2215 38.4714C62.2093 35.3023 61.5868 33.1026 61.3682 32.4377C61.3385 32.3471 61.2444 32.2995 61.1551 32.3291C60.9898 32.3818 58.7315 33.1319 55.8578 35.229L55.8578 35.229ZM43.8153 53.4396C43.9729 51.3782 44.5516 49.138 45.5052 46.8693C43.1827 48.5004 40.7376 51.3427 39.78 53.6502L39.2944 55.9705C40.5829 54.8005 42.1186 53.9425 43.8153 53.4397L43.8153 53.4396ZM49.7307 63.7422C50.1151 62.9877 50.385 62.2112 50.55 61.4288C49.4088 61.1134 48.1913 60.6424 47.0609 60.0664C46.0497 59.5512 44.9918 58.8664 44.0766 58.1505C43.5256 58.7347 43.0488 59.3995 42.669 60.1449C41.0349 63.352 41.6801 67.0383 42.0656 69.241C42.1039 69.4567 42.1381 69.6567 42.1679 69.8389C42.3636 69.7379 42.5828 69.6295 42.8223 69.511C44.8077 68.5281 48.1292 66.8852 49.7307 63.7422L49.7307 63.7422ZM52.0533 60.7551C52.0672 60.5115 52.0697 60.266 52.0616 60.0185C50.6371 59.6115 49.2423 59.0694 47.9132 58.3922C46.6326 57.7398 45.4153 56.9625 44.2826 56.0882C44.0819 56.2254 43.8866 56.3711 43.6967 56.5274C44.7097 57.4833 46.1509 58.493 47.5091 59.1851C49.0154 59.9526 50.672 60.5212 52.0533 60.7551L52.0533 60.7551ZM60.0801 48.8459C61.5512 45.3666 62.0927 42.1956 62.2004 39.5695L54.987 35.8942C52.9305 37.5292 50.6517 39.8327 48.6326 43.025C45.9779 47.2231 44.5833 51.6522 44.779 55.2256C47.0405 56.9918 49.6759 58.3245 52.4331 59.0989C55.3576 57.1573 58.1364 53.4391 60.0802 48.846L60.0801 48.8459ZM58.7695 53.5757C57.47 55.695 56.0016 57.4723 54.4348 58.818C55.0361 60.4983 55.2493 62.2587 55.0587 64.0023L56.6504 62.2457C56.6562 62.2336 58.7301 59.0582 58.7696 53.5757L58.7695 53.5757ZM48.064 60.6858C47.7923 60.6588 47.5503 60.8573 47.5236 61.1292C47.4332 62.0474 46.9522 63.2247 46.1477 64.203C46.2975 63.2744 46.0439 62.7958 45.7384 62.5489C45.5069 62.3609 45.221 62.2875 44.909 62.3243C45.2882 61.1285 46.1024 60.4588 46.1212 60.444C46.3343 60.2748 46.3713 59.9653 46.2027 59.7513C46.0333 59.537 45.7229 59.5002 45.5089 59.6689C45.4459 59.7189 43.9505 60.9199 43.7523 63.0937L43.6529 64.1892L44.5379 63.5362C44.8729 63.2888 45.0884 63.2887 45.1177 63.3176C45.2058 63.3884 45.3858 63.9833 44.6581 65.593L43.9699 67.116L45.3755 66.2119C47.3132 64.9666 48.3573 62.7542 48.5078 61.2268C48.5331 60.9546 48.3341 60.7121 48.064 60.6858L48.064 60.6858ZM59.284 46.6795C58.1091 48.9854 55.2769 49.9056 52.971 48.7307C50.6651 47.5558 49.7449 44.7236 50.9198 42.4177C52.0947 40.1118 54.9269 39.1916 57.2328 40.3665C59.5388 41.5411 60.4591 44.3733 59.284 46.6795ZM58.4036 46.2309C59.3313 44.4102 58.6049 42.1745 56.7842 41.2469C54.9632 40.319 52.728 41.0453 51.8002 42.8663C50.8725 44.6869 51.5989 46.9227 53.4196 47.8503C55.2403 48.778 57.476 48.0516 58.4036 46.2309Z" fill="white" stroke="white" stroke-width="0.2"/>
</svg>
