<svg width="103" height="103" viewBox="0 0 103 103" fill="none" xmlns="http://www.w3.org/2000/svg">
<rect width="103" height="103" rx="51.5" fill="#383680"/>
<path d="M67.7168 62.7886C66.8075 62.7905 65.9253 62.4824 65.2149 61.9151L64.3337 61.2081C63.8553 60.825 63.7775 60.1266 64.1605 59.6478C64.5436 59.1689 65.242 59.0916 65.7208 59.4746L66.6006 60.1817C66.973 60.4791 67.4479 60.616 67.9214 60.5628C68.3949 60.5096 68.8282 60.2707 69.1252 59.8983C69.4226 59.5259 69.5595 59.0509 69.5068 58.5774C69.4536 58.104 69.2147 57.6706 68.8423 57.3736L68.1023 56.7841C67.6235 56.4015 67.5461 55.7026 67.9291 55.2243C68.3117 54.7455 69.0106 54.6681 69.4889 55.0507L70.2289 55.6412V55.6417C71.1019 56.3381 71.6451 57.3674 71.7273 58.4812C71.81 59.595 71.4245 60.6929 70.6638 61.5108C69.903 62.3282 68.8361 62.792 67.7189 62.79L67.7168 62.7886Z" fill="white" stroke="#383680"/>
<path d="M63.5381 66.8904C62.6303 66.8904 61.7497 66.5804 61.0421 66.0116L59.5167 64.7914C59.0379 64.4088 58.9605 63.7099 59.3436 63.2316C59.7266 62.7528 60.425 62.6754 60.9034 63.058L62.4287 64.2782C62.7997 64.5868 63.279 64.7328 63.7587 64.684C64.2385 64.6351 64.6786 64.3952 64.9795 64.0185C65.2808 63.6417 65.4176 63.1595 65.3596 62.6807C65.3011 62.2019 65.053 61.7666 64.6704 61.473L56.2762 54.7726C55.7974 54.3896 55.7196 53.6912 56.1026 53.2123C56.4857 52.734 57.1841 52.6561 57.6629 53.0392L66.0527 59.743H66.0523C66.8841 60.4081 67.4176 61.3754 67.5355 62.4335C67.654 63.4917 67.3469 64.5533 66.6824 65.3847C66.0179 66.2166 65.0505 66.7505 63.9923 66.8685C63.8414 66.884 63.69 66.8912 63.5382 66.8903L63.5381 66.8904Z" fill="white" stroke="#383680"/>
<path d="M59.0623 70.7462C58.153 70.7472 57.2703 70.4382 56.5604 69.8699L54.3713 68.1205C53.893 67.7375 53.8152 67.0391 54.1982 66.5602C54.5813 66.0814 55.2796 66.004 55.7585 66.3871L57.948 68.1364C58.4505 68.5219 59.1184 68.6148 59.707 68.3802C60.2951 68.1456 60.7164 67.6185 60.8155 66.9926C60.9142 66.3673 60.6767 65.7357 60.1897 65.3308L50.6711 57.7274C50.1927 57.3449 50.1149 56.6465 50.4979 56.1676C50.881 55.6888 51.5794 55.6114 52.0582 55.994L61.572 63.5974C62.445 64.2943 62.9882 65.3231 63.0708 66.4369C63.153 67.5508 62.7675 68.6486 62.0068 69.4665C61.2465 70.2844 60.179 70.7482 59.0624 70.7462H59.0623Z" fill="white" stroke="#383680"/>
<path d="M53.8274 74.0002C52.9186 74.0006 52.0369 73.6916 51.3275 73.1233L40.1457 64.1904C39.6673 63.8074 39.5895 63.109 39.9725 62.6301C40.3556 62.1518 41.054 62.0739 41.5323 62.457L52.7141 71.3899C53.0851 71.6984 53.5644 71.8445 54.0441 71.7957C54.5239 71.7468 54.964 71.5069 55.2649 71.1302C55.5662 70.7534 55.7031 70.2712 55.6445 69.7924C55.5865 69.3135 55.3384 68.8783 54.9558 68.5847L48.753 63.6278C48.2742 63.2453 48.1968 62.5464 48.5799 62.068C48.9624 61.5892 49.6608 61.5118 50.1397 61.8944L56.343 66.8513H56.3435C57.216 67.5482 57.7591 68.577 57.8418 69.6908C57.9246 70.8046 57.5391 71.9025 56.7783 72.7204C56.0175 73.5383 54.9501 74.0021 53.8334 74.0001L53.8274 74.0002Z" fill="white" stroke="#383680"/>
<path d="M40.8382 64.4327C40.5785 64.4327 40.327 64.3413 40.1282 64.1745C36.3978 61.0612 32.2496 50.6813 32.075 50.2381C31.8487 49.6683 32.1273 49.0236 32.697 48.7972C33.2663 48.5714 33.9114 48.8495 34.1378 49.4192C35.2705 52.2766 38.8118 60.1861 41.5516 62.4691C41.9105 62.768 42.0435 63.2604 41.8844 63.6995C41.7248 64.1387 41.3074 64.4308 40.8402 64.4303L40.8382 64.4327Z" fill="white" stroke="#383680"/>
<path d="M42.1755 39.5884C41.6145 39.5884 41.1414 39.1691 41.0742 38.612C41.007 38.0548 41.3664 37.5354 41.9114 37.4014C41.9903 37.382 43.8779 36.9231 46.4988 37.3124V37.3129C47.1 37.4082 47.5121 37.9697 47.4221 38.5718C47.3326 39.174 46.775 39.5913 46.1723 39.5072C44.0138 39.186 42.4604 39.5517 42.4449 39.5556V39.556C42.3569 39.5773 42.2665 39.5884 42.1755 39.5884L42.1755 39.5884Z" fill="white" stroke="#383680"/>
<path d="M68.7941 57.0252C68.5474 57.0252 68.308 56.943 68.1131 56.7916L54.7982 46.4532C54.7663 46.4281 54.7358 46.401 54.7068 46.3734C53.9697 45.6591 53.2056 45.3177 52.3688 45.3336C50.9823 45.3563 49.7561 46.3444 49.3383 46.7202C48.6118 48.6403 47.5313 49.8005 46.1244 50.171H46.124C45.8115 50.2527 45.4894 50.2938 45.1663 50.2934C43.4025 50.2934 41.9767 49.1007 41.7987 48.9426V48.943C41.3698 48.5672 41.2953 47.9274 41.627 47.4631C43.0499 45.4709 42.8947 42.4913 42.8933 42.4613C42.8889 42.3994 42.8904 42.3375 42.8972 42.2756C43.1482 39.9478 45.4764 37.6815 45.8092 37.3695C47.2065 35.9786 49.0154 35.0566 51.185 34.6291C52.8671 34.2968 54.7687 34.263 56.8364 34.5271V34.5275C58.9993 34.81 61.1206 35.3512 63.1542 36.1396C63.7206 36.3737 63.9895 37.0227 63.7549 37.5891C63.5208 38.1549 62.8718 38.4243 62.3059 38.1898C62.1638 38.1317 52.203 34.1189 47.3642 38.9525L47.3371 38.9786C46.7756 39.5058 45.3018 41.1377 45.1128 42.4391C45.1336 43.0078 45.1524 45.5286 44.027 47.7645C44.4845 47.9899 45.0552 48.1611 45.5665 48.0238C46.4496 47.7858 47.017 46.6458 47.3371 45.7307V45.7312C47.3889 45.5827 47.4721 45.4473 47.5804 45.3332C47.665 45.2442 49.6731 43.166 52.3124 43.1142C53.7373 43.0852 55.0465 43.6312 56.2057 44.7368L68.309 54.1344L69.1984 51.9058V51.9063C69.3038 51.6282 69.5166 51.4038 69.7889 51.2838C70.0612 51.1644 70.3703 51.1586 70.6469 51.2688C70.9231 51.3791 71.1436 51.5958 71.2587 51.87C71.3738 52.1442 71.3743 52.4533 71.2592 52.728L69.8237 56.3263H69.8242C69.6951 56.6503 69.4208 56.895 69.0842 56.9864C68.9894 57.0121 68.8917 57.0251 68.7935 57.0251L68.7941 57.0252Z" fill="white" stroke="#383680"/>
<path d="M29.1961 54.1589C28.3168 54.1604 27.4632 53.8615 26.7764 53.3116L23.7072 50.8595C22.9033 50.2157 22.3883 49.2799 22.2742 48.2565C22.1595 47.2336 22.456 46.2068 23.0973 45.402L35.039 30.4565C35.6827 29.6537 36.6191 29.1382 37.6419 29.024C38.6647 28.9099 39.6916 29.2059 40.4964 29.8472L43.5628 32.2998C44.3671 32.9425 44.8831 33.8789 44.9978 34.9023C45.1119 35.9257 44.8149 36.9526 44.1722 37.7573L32.2334 52.7016C31.4958 53.6249 30.3777 54.1612 29.1961 54.1589L29.1961 54.1589ZM28.161 51.5782C28.8793 52.1518 29.9259 52.0347 30.5 51.317L42.4412 36.3715C43.0153 35.6533 42.8982 34.6067 42.1805 34.0325L39.1113 31.5799C38.3931 31.0063 37.3459 31.1234 36.7723 31.8416L24.8307 46.7871C24.2571 47.5053 24.3741 48.5524 25.0923 49.126L28.161 51.5782Z" fill="white" stroke="#383680"/>
<path d="M73.3503 56.2489C72.6263 56.2475 71.9168 56.0449 71.3016 55.6628C70.6859 55.2807 70.1892 54.7346 69.8671 54.0861L61.3811 36.9405C60.925 36.0177 60.8539 34.9518 61.1833 33.9763C61.5131 33.0012 62.2163 32.1969 63.1386 31.7403L66.6596 29.9978C67.5824 29.5417 68.6483 29.4706 69.6235 29.8C70.599 30.1298 71.4033 30.833 71.8598 31.7553L80.3478 48.8985C80.8039 49.8213 80.875 50.8872 80.5456 51.8627C80.2158 52.8378 79.5125 53.642 78.5902 54.0987L75.0692 55.8412C74.5353 56.1077 73.9472 56.247 73.3503 56.2485V56.2489ZM68.3837 31.8106C68.1284 31.8111 67.8764 31.8701 67.6476 31.9837L64.1266 33.7268C63.303 34.1345 62.9659 35.1323 63.3731 35.9559L71.8558 53.1015C72.0512 53.4976 72.396 53.799 72.8144 53.9407C73.2327 54.0819 73.6898 54.0514 74.0854 53.8555L77.6055 52.113C78.0011 51.9171 78.3029 51.5723 78.4441 51.1539C78.5853 50.736 78.5544 50.2785 78.3585 49.8833L69.8739 32.7377C69.6795 32.3411 69.3347 32.0393 68.9158 31.8991C68.7446 31.841 68.5652 31.811 68.3838 31.8106L68.3837 31.8106Z" fill="white" stroke="#383680"/>
</svg>
